<?xml version="1.0" standalone="no"?>
<!DOCTYPE svg PUBLIC "-//W3C//DTD SVG 20010904//EN"
 "http://www.w3.org/TR/2001/REC-SVG-20010904/DTD/svg10.dtd">
<svg version="1.0" xmlns="http://www.w3.org/2000/svg"
 width="460.000000pt" height="460.000000pt" viewBox="0 0 460.000000 460.000000"
 preserveAspectRatio="xMidYMid meet">
<metadata>
Created by potrace 1.14, written by Peter Selinger 2001-2017
</metadata>
<g transform="translate(0.000000,460.000000) scale(0.100000,-0.100000)"
fill="#000000" stroke="none">
<path d="M4180 4591 c0 -5 5 -11 10 -13 14 -4 -17 -68 -37 -75 -8 -3 -25 -1
-39 5 -30 14 -79 -1 -71 -22 3 -8 -2 -16 -14 -19 -27 -7 -24 -24 6 -31 27 -7
33 -24 11 -32 -7 -3 -22 -25 -32 -49 -12 -30 -26 -47 -44 -53 -44 -16 -89 -60
-83 -82 5 -19 4 -19 -26 -4 -37 18 -37 19 -11 62 16 26 17 32 5 32 -8 0 -15
-7 -15 -15 0 -8 -7 -15 -15 -15 -8 0 -15 -4 -15 -9 0 -5 -15 -10 -32 -9 -18 0
-59 -1 -91 -2 -57 -2 -117 14 -117 31 0 4 -18 28 -39 53 -22 25 -42 55 -46 66
-6 20 -25 26 -38 13 -4 -3 5 -22 19 -40 30 -39 26 -51 -11 -35 -37 17 -32 -4
11 -43 20 -19 53 -37 73 -42 29 -7 37 -14 39 -35 2 -18 18 -39 43 -59 44 -35
48 -44 19 -52 -11 -3 -20 -10 -20 -15 0 -16 39 -21 53 -8 14 15 37 10 55 -12
16 -21 15 -42 -3 -42 -8 0 -15 7 -15 15 0 20 -44 20 -61 -1 -10 -12 -10 -22 0
-49 8 -23 9 -40 2 -52 -5 -10 -12 -26 -15 -37 -4 -10 -12 -16 -20 -13 -18 7
-46 -28 -46 -57 0 -39 37 -116 57 -117 10 -1 25 -3 33 -4 8 -1 23 -3 32 -4 20
-1 13 -31 -7 -31 -7 0 -18 -13 -25 -29 -9 -24 -17 -29 -38 -26 -15 2 -30 4
-35 4 -4 1 -12 12 -19 26 -13 28 -22 25 -43 -15 -22 -42 -12 -57 38 -54 23 0
42 2 42 4 0 1 15 3 33 5 26 2 32 0 27 -13 -3 -9 3 -21 15 -29 14 -10 20 -25
20 -52 0 -45 -22 -70 -45 -51 -8 6 -18 9 -23 6 -6 -3 -16 2 -23 11 -12 14 -11
15 7 9 27 -8 53 19 36 36 -9 9 -12 8 -12 -5 0 -21 -9 -21 -37 -2 -14 10 -32
13 -47 9 -15 -3 -33 0 -45 8 -14 10 -33 13 -58 8 -39 -7 -99 15 -131 46 -7 8
-22 14 -32 14 -10 0 -22 5 -25 10 -3 6 -11 10 -17 10 -6 0 -4 -9 5 -22 8 -13
17 -22 21 -20 10 4 106 -50 106 -60 0 -4 8 -8 18 -8 9 0 32 -9 50 -20 18 -11
39 -20 46 -20 7 0 20 -7 27 -16 11 -14 10 -18 -6 -30 -13 -9 -22 -11 -31 -3
-6 5 -24 8 -39 5 -15 -3 -35 0 -46 7 -23 14 -25 29 -4 21 9 -4 15 0 15 9 0 20
-16 31 -25 17 -9 -14 -42 -13 -48 3 -4 7 -6 6 -6 -4 -1 -9 -8 -22 -17 -30 -8
-7 -13 -21 -11 -31 3 -10 1 -18 -4 -18 -5 0 -9 -4 -9 -10 0 -5 6 -10 14 -10 8
0 18 -10 22 -22 3 -13 15 -35 25 -50 20 -28 25 -58 9 -58 -5 0 -15 -18 -21
-40 -9 -31 -22 -46 -51 -62 l-39 -22 35 -18 c27 -14 37 -26 42 -54 6 -34 7
-34 21 -15 8 12 21 21 29 21 8 0 14 7 14 15 0 8 -5 15 -10 15 -6 0 -13 7 -17
16 -8 23 45 74 77 74 15 0 35 9 45 20 16 17 16 20 2 20 -25 0 -31 19 -12 40
10 11 14 26 11 38 -5 13 6 41 29 81 39 67 61 76 92 38 10 -12 30 -32 45 -43
24 -19 26 -23 13 -34 -9 -7 -22 -9 -32 -5 -10 5 -21 7 -26 7 -4 -1 -5 9 -1 23
8 30 -5 32 -40 4 -29 -22 -34 -39 -12 -39 16 0 29 -27 20 -41 -3 -5 -12 -9
-20 -9 -8 0 -14 -6 -14 -14 0 -8 8 -13 18 -12 14 1 17 -8 17 -57 0 -46 4 -62
19 -73 12 -9 23 -11 29 -5 6 6 17 5 29 -2 15 -10 21 -9 28 3 9 13 11 13 20 0
5 -8 10 -27 10 -42 0 -28 6 -31 65 -40 29 -4 34 -48 6 -48 -12 0 -21 -6 -21
-14 0 -9 15 -15 45 -18 40 -3 49 1 74 27 22 24 28 38 24 58 -3 15 -2 34 1 43
6 16 8 16 20 -1 21 -28 47 -12 44 27 -3 32 -3 32 39 29 55 -3 84 15 72 45 -5
13 -4 26 1 29 11 7 56 -10 65 -25 3 -5 11 -8 16 -5 5 4 13 -5 19 -19 5 -14 19
-35 30 -46 33 -33 22 -55 -30 -57 -57 -4 -69 -16 -36 -38 14 -10 26 -23 26
-30 0 -13 111 -14 143 0 17 7 17 9 1 26 -28 31 -11 49 47 47 38 0 54 4 61 16
16 29 42 36 81 22 44 -15 57 -26 31 -26 -20 0 -48 -35 -39 -49 6 -11 -19 -21
-55 -21 -42 0 -65 -10 -48 -21 11 -7 10 -11 -2 -19 -20 -14 2 -29 34 -23 34 7
42 -15 15 -43 -18 -19 -23 -38 -25 -82 -3 -86 -4 -93 -14 -87 -20 12 -28 -73
-8 -93 17 -17 43 -15 58 3 12 14 24 14 68 -2 7 -3 12 3 12 16 0 12 -4 21 -10
21 -5 0 -10 5 -10 10 0 19 29 10 55 -17 16 -18 24 -36 22 -50 -2 -12 0 -28 4
-35 5 -7 9 75 9 184 0 148 -3 197 -12 201 -10 3 -10 9 0 26 9 16 12 169 12
675 l0 654 -21 5 c-23 6 -17 27 7 27 12 0 15 20 13 120 l-1 120 -209 0 c-120
0 -209 -4 -209 -9z m89 -98 c2 -1 -1 -9 -8 -16 -10 -13 -7 -100 5 -118 4 -7
-55 -24 -61 -17 -1 1 -6 18 -10 36 -6 28 -4 32 14 32 18 0 19 5 14 63 l-5 62
23 -20 c13 -11 26 -21 28 -22z m61 7 c12 -8 11 -10 -7 -10 -12 0 -25 5 -28 10
-8 13 15 13 35 0z m15 -81 c-8 -11 -16 -11 -34 0 -22 14 -4 33 20 21 11 -6 17
-15 14 -21z m-155 -49 c0 -5 -5 -10 -11 -10 -5 0 -7 5 -4 10 3 6 8 10 11 10 2
0 4 -4 4 -10z m250 -8 c0 -4 -7 -15 -14 -25 -15 -19 -41 -14 -50 10 -4 10 -2
13 8 10 8 -3 20 1 26 8 12 14 30 12 30 -3z m91 -24 c6 -23 4 -28 -11 -28 -23
0 -44 26 -36 46 9 24 39 12 47 -18z m-171 -37 c0 -3 -12 -19 -27 -35 -17 -19
-23 -31 -15 -34 16 -5 15 -22 -2 -22 -7 0 -19 -7 -26 -15 -14 -17 -38 -19 -60
-5 -13 9 -10 15 15 37 17 14 30 32 30 40 0 7 11 26 25 43 23 27 25 28 42 13
10 -9 18 -19 18 -22z m-840 19 c0 -5 -2 -10 -4 -10 -3 0 -8 5 -11 10 -3 6 -1
10 4 10 6 0 11 -4 11 -10z m228 -108 c9 -6 6 -14 -13 -30 -32 -28 -33 -28 -75
8 l-35 29 55 1 c30 0 61 -4 68 -8z m627 -12 c-3 -5 -10 -10 -16 -10 -5 0 -9 5
-9 10 0 6 7 10 16 10 8 0 12 -4 9 -10z m-530 -55 c0 -12 -6 -19 -14 -17 -7 2
-22 -5 -33 -15 -22 -20 -50 -9 -56 22 -5 25 16 36 63 33 32 -3 40 -7 40 -23z
m438 -11 c3 -4 2 -15 -3 -25 -7 -12 -7 -20 0 -24 17 -11 11 -22 -20 -35 -27
-11 -33 -11 -46 6 -14 18 -15 17 -9 -16 3 -19 10 -36 15 -38 6 -2 10 -12 10
-22 0 -10 7 -21 16 -24 8 -3 12 -11 8 -17 -5 -8 -10 -6 -16 5 -5 9 -16 16 -23
16 -8 0 -15 9 -15 20 0 23 -4 24 -31 10 -15 -9 -26 -6 -54 16 -19 14 -35 33
-35 40 0 19 29 18 51 -2 19 -17 39 -11 39 11 0 23 33 55 56 55 12 0 24 7 28
15 6 16 18 19 29 9z m-248 -94 c4 -6 -7 -10 -24 -10 -17 0 -31 5 -31 10 0 6
11 10 24 10 14 0 28 -4 31 -10z m-275 -64 c0 -18 -30 -30 -43 -17 -5 5 -6 14
-3 20 10 16 46 13 46 -3z m310 -6 c14 -14 28 -18 44 -14 28 7 40 -8 31 -37 -6
-17 -13 -20 -36 -15 -15 3 -31 1 -34 -4 -3 -6 -15 -10 -26 -10 -16 0 -20 6
-17 27 3 25 0 27 -39 30 -29 2 -43 -2 -47 -12 -6 -16 -46 -21 -46 -6 0 12 49
47 75 54 43 11 76 6 95 -13z m379 -19 c12 -8 12 -12 2 -25 -18 -22 -41 -20
-41 2 0 31 14 39 39 23z m-459 -41 c0 -5 -9 -14 -20 -20 -11 -6 -20 -20 -20
-30 0 -23 -22 -26 -39 -6 -16 19 -3 48 19 41 11 -3 20 0 24 10 6 16 36 21 36
5z m250 -35 c0 -8 -7 -15 -15 -15 -8 0 -15 7 -15 15 0 8 7 15 15 15 8 0 15 -7
15 -15z m-422 -6 c-2 -6 -8 -10 -13 -10 -5 0 -11 4 -13 10 -2 6 4 11 13 11 9
0 15 -5 13 -11z m612 -9 c0 -5 -5 -10 -11 -10 -5 0 -7 5 -4 10 3 6 8 10 11 10
2 0 4 -4 4 -10z m-670 -66 c0 -8 -4 -12 -10 -9 -5 3 -10 10 -10 16 0 5 5 9 10
9 6 0 10 -7 10 -16z m-80 -22 c0 -4 -5 -13 -12 -20 -18 -18 -28 -15 -28 8 0
13 7 20 20 20 11 0 20 -4 20 -8z m584 -98 c23 -9 20 -23 -4 -17 -11 3 -20 9
-20 14 0 11 3 11 24 3z m-63 -27 c-13 -13 -26 -3 -16 12 3 6 11 8 17 5 6 -4 6
-10 -1 -17z m-40 -50 c-13 -13 -26 -3 -16 12 3 6 11 8 17 5 6 -4 6 -10 -1 -17z
m87 -15 c2 -7 -2 -10 -12 -6 -9 3 -16 11 -16 16 0 13 23 5 28 -10z m-158 -161
c0 -7 -10 -11 -22 -9 -18 2 -24 11 -26 36 l-3 32 25 -24 c14 -13 26 -29 26
-35z m393 33 c10 -11 -12 -44 -30 -44 -11 0 -14 -6 -10 -22 4 -12 1 -28 -5
-35 -16 -19 -48 -16 -48 5 0 9 -3 27 -6 39 -5 18 -1 25 19 32 14 5 28 15 32
20 7 12 38 15 48 5z m-113 -8 c0 -3 -4 -8 -10 -11 -5 -3 -10 -1 -10 4 0 6 5
11 10 11 6 0 10 -2 10 -4z m-5 -47 c-4 -5 -13 -9 -22 -9 -13 0 -13 3 -3 15 13
15 35 11 25 -6z m-538 -15 c-9 -9 -28 6 -21 18 4 6 10 6 17 -1 6 -6 8 -13 4
-17z m491 -56 c-2 -13 -7 -23 -13 -23 -5 0 -11 10 -13 23 -2 15 2 22 13 22 11
0 15 -7 13 -22z m-858 -8 c0 -5 -8 -10 -17 -10 -15 0 -16 2 -3 10 19 12 20 12
20 0z m317 -7 c3 -8 -12 -10 -46 -9 -30 2 -51 -1 -51 -7 0 -6 -3 -7 -7 -3 -5
4 1 14 12 22 23 17 87 15 92 -3z m63 -17 c0 -3 -4 -8 -10 -11 -5 -3 -10 -1
-10 4 0 6 5 11 10 11 6 0 10 -2 10 -4z m370 -21 c0 -8 -4 -15 -9 -15 -13 0
-22 16 -14 24 11 11 23 6 23 -9z m-334 -40 c11 -25 17 -45 12 -45 -14 0 -9
-28 7 -34 18 -7 20 -36 3 -36 -7 1 -30 7 -51 15 l-39 13 -20 -34 c-24 -40 -43
-45 -34 -9 5 18 2 27 -10 32 -8 3 -20 17 -25 31 -8 21 -14 24 -43 19 -26 -4
-36 -1 -40 10 -8 20 -8 20 34 28 29 5 39 2 54 -14 11 -12 30 -21 43 -21 14 0
23 -6 23 -15 0 -9 9 -15 25 -15 21 0 25 5 25 31 0 22 -5 32 -20 36 -11 3 -20
9 -20 13 0 7 39 38 50 39 3 1 14 -19 26 -44z m-219 8 c-9 -9 -20 -13 -24 -9
-4 4 -1 11 7 16 25 16 35 11 17 -7z m133 -13 c0 -5 -4 -10 -10 -10 -5 0 -10 5
-10 10 0 6 5 10 10 10 6 0 10 -4 10 -10z m270 -14 c0 -3 -4 -8 -10 -11 -5 -3
-10 -1 -10 4 0 6 5 11 10 11 6 0 10 -2 10 -4z m356 -97 c11 -18 -19 -30 -36
-15 -8 8 -24 16 -35 19 -11 2 -1 5 22 6 23 0 45 -4 49 -10z m140 -87 c-18 -18
-36 -8 -29 17 4 17 8 18 24 8 16 -10 17 -14 5 -25z m34 -183 c0 -5 -4 -9 -10
-9 -5 0 -10 7 -10 16 0 8 5 12 10 9 6 -3 10 -10 10 -16z m-3 -41 c-3 -8 -6 -5
-6 6 -1 11 2 17 5 13 3 -3 4 -12 1 -19z"/>
<path d="M4125 4560 c-3 -5 3 -10 14 -10 12 0 24 0 28 -1 4 0 9 4 11 10 5 14
-45 15 -53 1z"/>
<path d="M3920 4526 c0 -27 15 -42 25 -26 8 13 -3 50 -16 50 -5 0 -9 -11 -9
-24z"/>
<path d="M2817 4474 c-12 -12 3 -22 23 -17 11 3 17 9 14 14 -6 10 -28 12 -37
3z"/>
<path d="M380 4445 c-8 -9 -8 -15 -2 -15 12 0 26 19 19 26 -2 2 -10 -2 -17
-11z"/>
<path d="M3938 4438 c-23 -23 -25 -46 -3 -28 12 10 18 10 30 0 14 -12 35 -6
35 9 0 5 -10 15 -22 23 -21 13 -25 12 -40 -4z"/>
<path d="M257 4423 c-12 -11 -8 -23 8 -23 8 0 15 7 15 15 0 16 -12 20 -23 8z"/>
<path d="M356 4371 c-13 -28 -16 -46 -10 -65 5 -14 12 -25 15 -23 4 1 16 -7
28 -17 21 -19 21 -19 21 2 0 15 6 22 20 22 11 0 20 5 20 10 0 6 -4 10 -10 10
-5 0 -10 6 -10 13 0 8 -11 19 -24 25 -18 8 -22 16 -19 36 8 39 -9 31 -31 -13z"/>
<path d="M0 4381 c0 -25 6 -27 13 -6 4 8 2 17 -3 20 -6 4 -10 -3 -10 -14z"/>
<path d="M290 4349 c0 -5 5 -7 10 -4 6 3 10 8 10 11 0 2 -4 4 -10 4 -5 0 -10
-5 -10 -11z"/>
<path d="M37 4334 c-3 -4 10 -15 30 -25 25 -13 40 -16 47 -9 7 7 3 10 -11 10
-11 0 -26 7 -33 15 -13 16 -23 19 -33 9z"/>
<path d="M196 4275 c-3 -8 -15 -15 -26 -15 -15 0 -20 -7 -20 -26 0 -19 4 -25
15 -20 8 3 26 0 40 -6 31 -14 43 -4 27 22 -7 12 -8 21 -2 25 6 3 10 13 10 21
0 19 -36 18 -44 -1z"/>
<path d="M3180 4280 c-9 -6 -10 -10 -3 -10 6 0 15 5 18 10 8 12 4 12 -15 0z"/>
<path d="M330 4210 c-8 -6 -25 -10 -37 -10 -26 0 -40 -34 -23 -55 15 -18 3
-38 -20 -32 -11 3 -21 -2 -24 -10 -9 -23 -7 -28 6 -15 16 16 45 15 51 -2 3 -8
16 -16 29 -18 19 -2 22 -8 20 -30 -3 -28 11 -36 34 -20 12 8 12 40 0 60 -4 8
-8 37 -7 65 0 61 -8 80 -29 67z m0 -86 c0 -8 -5 -12 -10 -9 -6 4 -8 11 -5 16
9 14 15 11 15 -7z"/>
<path d="M0 4154 c0 -41 4 -54 15 -54 8 0 15 4 15 10 0 6 23 8 53 7 47 -3 52
-6 55 -28 6 -48 12 -54 29 -29 13 18 14 27 5 41 -7 10 -12 36 -12 56 -1 36 -1
37 -16 18 -15 -20 -15 -20 -35 4 -15 18 -31 25 -65 27 l-44 2 0 -54z m137 -10
c-3 -3 -12 -4 -19 -1 -8 3 -5 6 6 6 11 1 17 -2 13 -5z"/>
<path d="M853 4195 c-3 -9 -3 -18 0 -21 9 -9 27 6 27 22 0 19 -19 18 -27 -1z"/>
<path d="M2265 4150 c3 -5 3 -10 -2 -11 -4 0 -30 -3 -58 -5 -27 -3 -54 -9 -59
-14 -6 -6 -23 -10 -38 -10 -15 0 -28 -4 -28 -9 0 -5 -11 -12 -25 -15 -14 -4
-25 -13 -25 -20 0 -8 -7 -17 -16 -20 -22 -9 -24 -8 -24 9 0 20 -13 19 -40 -5
-13 -11 -18 -20 -12 -20 6 0 14 5 17 10 11 18 27 11 20 -9 -3 -12 0 -21 10
-25 8 -3 15 -11 14 -18 0 -10 -2 -10 -6 0 -6 14 -33 16 -33 2 0 -5 -7 -10 -15
-10 -8 0 -15 -5 -15 -11 0 -15 -30 17 -31 33 0 7 -7 -2 -15 -21 -15 -34 -31
-37 -86 -16 -11 4 -18 3 -18 -4 0 -7 7 -14 15 -17 16 -6 19 -31 9 -59 -5 -12
-9 -13 -14 -5 -4 7 -13 9 -19 5 -9 -5 -9 -11 1 -22 11 -13 7 -15 -28 -11 -23
3 -46 8 -51 11 -6 4 -18 -2 -28 -13 -10 -11 -21 -17 -26 -15 -4 3 -11 0 -16
-8 -4 -7 -19 -18 -33 -24 l-25 -12 23 0 c13 -1 20 -5 17 -11 -3 -5 2 -10 11
-10 16 0 16 -1 -2 -15 -19 -15 -19 -15 1 -9 16 5 17 4 5 -5 -8 -6 -25 -11 -38
-11 -13 0 -21 -4 -18 -9 3 -5 -10 -12 -29 -15 -20 -4 -35 -13 -35 -21 0 -7 -4
-15 -10 -17 -6 -2 -4 -19 4 -43 10 -27 11 -46 5 -58 -7 -12 -6 -16 2 -15 6 2
14 -3 16 -9 3 -7 0 -13 -6 -13 -6 0 -11 -7 -11 -16 0 -8 -4 -12 -10 -9 -5 3
-10 1 -10 -4 0 -6 6 -11 13 -11 8 0 7 -3 -3 -9 -8 -6 -18 -7 -22 -5 -4 3 -9
-10 -9 -28 -2 -43 1 -62 11 -68 4 -3 8 -27 8 -55 0 -58 13 -127 37 -205 9 -30
19 -71 22 -90 3 -19 12 -39 19 -43 19 -11 18 -37 -1 -37 -23 0 -18 -63 10
-145 23 -68 24 -69 24 -30 1 52 12 115 20 115 24 -1 28 -18 20 -73 -7 -44 -6
-68 5 -100 9 -28 11 -48 5 -59 -6 -12 -6 -25 1 -37 5 -11 10 -33 10 -50 0 -16
7 -62 15 -102 14 -65 14 -74 1 -81 -12 -7 -13 -14 -6 -34 12 -31 4 -47 -21
-41 -16 4 -15 1 6 -31 39 -57 31 -146 -10 -112 -21 18 -20 -18 1 -49 19 -26
22 -130 6 -172 -12 -30 -9 -30 -212 -3 -131 17 -226 22 -265 13 -22 -5 -24 -7
-8 -8 12 -1 25 -5 28 -11 3 -5 26 -10 50 -10 52 0 53 -2 57 -118 l2 -83 26 6
c58 15 185 95 150 95 -26 0 -3 35 30 44 20 6 22 5 10 -4 -12 -9 -10 -10 12 -6
16 4 28 1 31 -7 4 -9 7 -9 18 1 7 6 25 12 40 12 38 0 69 14 100 44 24 23 26
28 18 70 -5 28 -5 56 1 72 6 14 8 30 5 34 -10 17 -12 115 -3 145 6 17 9 45 9
63 -1 23 3 32 14 32 8 0 15 -7 15 -15 0 -8 4 -15 10 -15 5 0 13 -12 16 -26 11
-45 154 -222 175 -217 4 2 17 -11 29 -27 12 -17 28 -30 36 -30 8 0 19 -12 25
-26 5 -15 12 -24 16 -20 8 8 63 -44 63 -60 0 -6 12 -15 26 -18 21 -6 24 -9 14
-21 -10 -12 -9 -16 4 -21 9 -3 14 -10 11 -14 -3 -5 -1 -11 5 -15 6 -4 5 -13
-2 -25 -10 -15 -7 -22 14 -41 l26 -24 -26 -12 c-19 -8 -22 -12 -9 -12 23 -1
23 -41 0 -41 -20 0 -73 -48 -73 -66 0 -56 125 -60 235 -7 40 20 78 13 90 -15
9 -20 15 -22 49 -16 27 4 36 3 32 -5 -5 -7 7 -9 38 -7 63 6 186 92 169 119 -3
6 -1 7 4 4 14 -9 47 29 38 43 -6 9 -10 9 -16 -1 -6 -10 -9 -10 -9 -2 0 16 17
26 25 13 14 -23 48 29 59 90 l6 35 -15 -38 c-8 -21 -21 -44 -29 -52 -13 -13
-15 -13 -21 5 -3 11 -4 23 -1 28 2 4 0 30 -5 57 -16 82 -20 118 -20 158 0 23
-4 37 -12 37 -9 0 -9 2 0 8 6 4 15 43 19 87 6 74 5 79 -10 60 -8 -11 -16 -15
-16 -8 0 14 50 63 65 63 5 0 3 -5 -5 -11 -12 -8 -11 -10 5 -7 11 2 20 10 20
19 0 21 25 57 65 96 24 24 34 43 37 74 2 23 13 63 23 89 10 26 16 51 12 55 -4
4 13 5 37 3 51 -4 68 16 27 32 -16 6 -26 17 -26 30 0 22 15 27 23 8 3 -8 6 -6
6 4 1 10 6 17 13 15 6 -1 14 12 18 28 4 17 21 60 38 96 17 36 34 88 37 116 7
47 5 51 -29 88 -36 38 -44 55 -26 55 6 0 10 6 10 14 0 8 5 16 12 18 8 3 8 9 2
19 -5 8 -9 44 -10 81 -1 37 -6 74 -13 82 -16 19 -4 39 16 31 13 -4 14 -3 4 9
-13 15 -41 134 -41 173 0 12 -6 26 -13 30 -8 4 -19 37 -26 73 -7 36 -19 79
-28 95 -22 43 -43 116 -43 147 0 20 -4 26 -15 22 -10 -4 -15 0 -15 10 0 15
-95 116 -109 116 -14 0 -40 41 -35 55 7 18 0 19 -28 4 -11 -6 -18 -7 -15 -2 4
6 -7 10 -23 11 -38 1 -103 30 -169 75 -29 20 -67 39 -84 41 -60 10 -147 12
-147 4 0 -4 -4 -8 -10 -8 -5 0 -7 7 -4 15 4 10 0 15 -16 15 -11 0 -18 -4 -15
-10z m-512 -387 c-7 -2 -21 -2 -30 0 -10 3 -4 5 12 5 17 0 24 -2 18 -5z m787
-85 c38 -22 51 -50 30 -63 -16 -10 -12 -22 18 -53 35 -37 53 -43 94 -31 56 16
93 -4 122 -64 13 -29 27 -63 31 -77 15 -61 29 -106 38 -118 6 -7 7 -15 4 -19
-4 -3 2 -18 13 -33 21 -30 50 -229 50 -348 0 -67 -25 -127 -41 -100 -7 10 -9
10 -9 0 0 -8 -14 -3 -39 12 -54 34 -87 41 -118 25 -22 -12 -27 -11 -37 3 -7 9
-23 19 -37 23 -13 3 -33 17 -44 31 -11 14 -46 52 -78 85 -32 32 -54 59 -49 59
5 0 8 11 6 25 -2 22 1 25 19 19 12 -3 27 -10 32 -14 6 -4 56 -8 112 -9 78 -2
108 1 124 12 12 9 28 13 36 10 8 -3 21 4 31 18 19 26 33 99 20 99 -4 0 -8 13
-8 30 0 49 -21 79 -89 127 -61 43 -72 47 -144 52 -43 4 -81 3 -83 0 -2 -4 -23
-10 -47 -14 -23 -4 -46 -11 -52 -15 -5 -4 -32 -13 -60 -20 -87 -23 -105 -60
-53 -111 15 -15 33 -50 42 -78 15 -50 43 -98 78 -133 26 -26 50 -77 46 -99 -3
-17 -5 -18 -30 -5 -69 36 -164 26 -182 -19 -4 -12 -12 -14 -28 -9 -34 10 -69
7 -112 -11 l-39 -16 34 -35 c21 -22 28 -34 18 -34 -8 0 -20 -5 -27 -12 -6 -6
-30 -11 -54 -11 l-43 0 0 44 c0 24 4 54 8 67 14 37 -13 26 -87 -38 -88 -76
-119 -127 -118 -197 1 -29 -3 -55 -8 -58 -6 -3 -10 3 -10 14 0 26 -18 37 -27
15 -6 -16 -7 -15 -20 2 -12 17 -13 16 -15 -7 0 -13 -1 -30 -1 -36 1 -7 -3 -13
-8 -13 -5 0 -10 19 -11 43 l-1 42 -4 -37 c-2 -21 -8 -38 -12 -38 -4 0 -6 13
-3 29 3 24 0 29 -14 28 -16 -2 -20 9 -28 78 -11 106 8 486 28 540 8 22 20 60
26 85 14 53 17 60 29 80 4 8 16 31 26 50 28 53 82 97 165 136 41 19 83 40 94
45 10 6 39 14 65 19 104 17 228 43 251 51 40 14 137 2 180 -23z m147 -474 c-3
-3 -12 -4 -19 -1 -8 3 -5 6 6 6 11 1 17 -2 13 -5z m-132 -74 c3 -5 1 -10 -4
-10 -6 0 -11 5 -11 10 0 6 2 10 4 10 3 0 8 -4 11 -10z m205 -30 c0 -5 -7 -10
-16 -10 -8 0 -12 5 -9 10 3 6 10 10 16 10 5 0 9 -4 9 -10z m-434 -351 c-10 -6
-35 -12 -56 -13 -21 0 -35 -5 -32 -10 3 -5 -8 -6 -25 -3 -17 3 -33 3 -37 0
-11 -11 -86 -13 -86 -3 0 6 6 10 13 8 6 -1 23 2 37 6 32 11 114 23 165 24 33
1 37 0 21 -9z m59 -69 c3 -5 19 -10 36 -10 16 0 29 -5 29 -11 0 -6 7 -8 15 -5
20 7 32 -22 15 -37 -10 -10 -12 -8 -7 6 5 12 3 16 -4 11 -7 -4 -48 -12 -92
-18 -63 -9 -81 -15 -83 -29 -1 -11 4 -17 16 -17 23 0 35 16 18 23 -7 3 -1 6
15 6 16 1 26 -4 25 -11 -2 -9 8 -12 32 -11 50 3 65 -3 50 -22 -7 -8 -21 -15
-32 -15 -10 0 -17 -4 -14 -9 6 -9 -41 -18 -125 -25 -49 -4 -89 -23 -89 -43 0
-7 -5 -13 -10 -13 -7 0 -7 -6 0 -20 6 -11 21 -20 33 -20 12 0 32 -7 45 -15 16
-12 39 -15 84 -12 69 4 132 -8 123 -23 -4 -6 -1 -10 4 -10 19 0 12 -15 -13
-26 -14 -6 -37 -10 -53 -8 -15 1 -31 -2 -34 -8 -10 -15 -51 -22 -141 -22 -42
0 -75 -3 -73 -7 5 -7 -81 7 -96 16 -5 4 -9 12 -9 19 0 8 -9 16 -20 19 -13 3
-22 17 -26 36 -5 25 -9 29 -20 20 -7 -6 -17 -8 -22 -5 -15 9 0 58 19 63 19 5
25 17 33 64 11 64 19 67 145 65 64 -2 103 -1 86 2 l-30 5 30 8 c21 5 7 7 -42
6 -40 -1 -73 -6 -73 -10 0 -5 -4 -5 -10 -2 -5 3 -10 13 -10 21 0 8 4 13 9 9 5
-3 11 5 13 17 2 15 10 23 23 23 11 0 26 4 33 8 7 5 19 6 27 3 8 -3 15 0 15 6
0 7 16 9 44 6 24 -3 50 -2 58 3 18 12 45 11 53 -1z m-485 -60 c0 -11 5 -20 10
-20 6 0 10 -11 10 -24 0 -14 5 -28 10 -31 12 -7 14 -26 3 -24 -22 4 -33 -3
-34 -18 0 -15 -2 -15 -7 -3 -12 25 -32 22 -32 -5 0 -14 -4 -25 -10 -25 -5 0
-13 -1 -17 -2 -4 -2 -10 12 -14 30 -6 29 -1 42 30 88 39 57 51 66 51 34z m-93
-42 c-3 -8 -6 -5 -6 6 -1 11 2 17 5 13 3 -3 4 -12 1 -19z m-10 -40 c-3 -8 -6
-5 -6 6 -1 11 2 17 5 13 3 -3 4 -12 1 -19z m156 -57 c17 -28 16 -29 -7 -35
-14 -3 -27 -14 -29 -24 -3 -9 -5 -1 -6 18 0 27 2 32 10 20 8 -11 9 -7 4 18 -8
40 5 41 28 3z m-76 -3 c-3 -8 -6 -5 -6 6 -1 11 2 17 5 13 3 -3 4 -12 1 -19z
m-8 -110 c1 -5 -3 -8 -9 -8 -5 0 -10 12 -9 28 0 24 1 25 9 7 5 -11 9 -23 9
-27z m18 5 c-3 -10 -5 -4 -5 12 0 17 2 24 5 18 2 -7 2 -21 0 -30z m703 -823
c0 -5 -2 -10 -4 -10 -3 0 -8 5 -11 10 -3 6 -1 10 4 10 6 0 11 -4 11 -10z"/>
<path d="M2608 3503 c7 -3 16 -2 19 1 4 3 -2 6 -13 5 -11 0 -14 -3 -6 -6z"/>
<path d="M1940 3327 c-66 -12 -103 -30 -152 -76 -29 -26 -34 -46 -18 -71 9
-13 12 -13 21 3 6 9 14 15 20 12 5 -4 9 1 9 9 0 14 12 20 33 17 4 0 7 3 7 8 0
5 18 12 40 16 81 14 139 -23 68 -44 l-33 -9 30 -2 c26 -1 23 -4 -29 -25 -67
-28 -84 -26 -35 4 44 27 30 27 -22 1 -52 -27 -79 -55 -79 -81 0 -19 4 -21 33
-15 68 15 137 19 137 7 0 -12 -18 -15 -62 -12 -14 1 -29 -3 -33 -8 -3 -6 -1
-11 5 -11 6 0 8 -4 5 -10 -3 -5 -5 -10 -3 -10 74 -12 133 -10 178 5 52 17 120
69 120 92 0 7 6 13 13 13 7 0 21 17 32 38 10 20 25 45 33 54 20 24 -10 93 -41
94 -12 0 -65 3 -117 7 -58 3 -120 1 -160 -6z"/>
<path d="M1837 2509 c4 -13 8 -18 11 -10 2 7 -1 18 -6 23 -8 8 -9 4 -5 -13z"/>
<path d="M599 4148 c-6 -22 -1 -82 8 -85 7 -3 11 11 11 41 -1 26 -5 46 -10 46
-4 0 -8 -1 -9 -2z"/>
<path d="M201 4114 c0 -11 3 -14 6 -6 3 7 2 16 -1 19 -3 4 -6 -2 -5 -13z"/>
<path d="M445 4090 c3 -5 11 -10 16 -10 6 0 7 5 4 10 -3 6 -11 10 -16 10 -6 0
-7 -4 -4 -10z"/>
<path d="M290 4037 c0 -8 7 -18 16 -21 11 -4 14 -1 12 11 -4 21 -28 30 -28 10z"/>
<path d="M3570 4033 c0 -14 19 -38 25 -32 8 8 -5 39 -16 39 -5 0 -9 -3 -9 -7z"/>
<path d="M1322 4019 c2 -6 8 -10 13 -10 5 0 11 4 13 10 2 6 -4 11 -13 11 -9 0
-15 -5 -13 -11z"/>
<path d="M392 3998 c2 -19 -1 -23 -19 -21 -15 2 -23 -3 -23 -12 0 -8 -9 -19
-20 -25 -16 -8 -21 -6 -31 12 -12 22 -12 22 -19 3 -9 -25 -2 -45 16 -45 8 0
14 -7 14 -16 0 -27 34 -118 48 -127 6 -4 12 -14 12 -21 0 -17 -27 -29 -35 -16
-3 5 -16 7 -30 4 -17 -3 -27 2 -34 15 -6 10 -7 21 -4 25 15 15 10 39 -8 43
-10 3 -19 9 -19 14 0 5 -6 9 -14 9 -15 0 -26 -30 -26 -71 0 -36 -25 -57 -51
-41 -10 7 -24 12 -30 12 -19 0 -79 50 -79 66 0 7 7 14 16 14 23 0 11 58 -16
77 -11 8 -20 20 -20 28 0 8 -5 17 -10 20 -6 4 -10 -8 -10 -29 0 -29 4 -36 19
-36 23 0 36 -16 21 -25 -6 -4 -18 -1 -26 6 -14 12 -15 -3 -11 -137 3 -82 9
-164 12 -181 5 -22 3 -33 -4 -33 -22 0 -12 -39 11 -42 28 -4 57 -59 58 -109 0
-19 4 -39 9 -45 6 -5 13 -27 16 -49 6 -37 4 -41 -24 -57 -19 -10 -31 -25 -31
-38 0 -28 28 -25 42 5 6 14 16 25 22 25 20 0 35 -57 26 -92 -10 -34 -6 -45 27
-71 13 -10 23 -24 23 -31 0 -7 11 -30 25 -50 14 -20 28 -49 31 -64 4 -15 13
-39 20 -53 11 -23 54 -168 54 -184 0 -3 -7 -5 -15 -5 -8 0 -15 4 -15 8 0 4
-29 39 -65 77 -35 39 -65 77 -65 85 0 8 -15 29 -32 47 -28 29 -33 42 -34 86
-1 29 -4 63 -9 75 -5 17 -2 27 11 36 20 15 11 36 -15 36 -10 0 -26 9 -36 20
-39 43 -45 28 -45 -110 l0 -130 30 -28 c53 -49 210 -332 210 -379 0 -10 9 -24
20 -31 19 -11 21 -21 18 -90 l-3 -77 -90 0 c-78 0 -90 -2 -93 -18 -3 -12 -9
-16 -22 -12 -10 3 -30 0 -44 -6 l-26 -12 1 -304 c1 -255 3 -302 14 -293 8 6
11 18 8 26 -3 8 1 22 9 32 23 27 38 70 39 110 0 30 2 33 9 17 6 -13 9 -15 9
-5 1 13 2 13 11 0 5 -8 10 -56 10 -106 0 -88 -1 -91 -30 -117 -17 -15 -30 -31
-30 -36 0 -15 23 -26 28 -13 2 7 11 12 20 12 13 0 10 -6 -10 -24 -31 -26 -35
-36 -13 -36 7 0 18 -6 22 -14 5 -8 27 -16 53 -18 l45 -3 -1 -80 c-1 -45 -8
-99 -18 -125 -8 -25 -16 -55 -16 -67 0 -16 -6 -23 -20 -23 -11 0 -20 4 -20 9
0 24 -78 81 -110 81 -6 0 -10 -107 -10 -274 l0 -274 45 -13 c51 -15 59 -29 16
-29 -59 0 -59 0 -60 -143 l0 -132 32 77 c18 43 36 81 40 84 4 4 7 14 7 23 0 9
24 70 54 136 29 66 57 135 61 153 6 28 4 32 -14 32 -12 0 -21 5 -21 11 0 5 4
8 9 4 5 -3 13 0 17 6 5 8 9 8 14 -2 10 -16 34 6 45 41 4 14 37 82 73 152 l65
128 -12 107 c-6 60 -12 131 -12 158 0 28 -1 66 -2 85 -2 43 7 117 27 234 9 49
16 102 16 117 l0 29 29 -32 29 -32 6 30 c6 27 9 29 50 26 40 -4 44 -2 50 23 8
32 39 31 44 -1 2 -16 -4 -23 -22 -28 -22 -5 -26 -12 -26 -41 0 -39 14 -46 30
-15 6 11 19 20 30 20 10 0 22 4 25 10 3 5 12 10 18 10 8 0 8 -3 -2 -9 -10 -7
-11 -13 -2 -30 7 -12 9 -27 5 -33 -12 -19 -14 -209 -2 -202 5 3 8 14 5 24 -2
9 2 28 9 41 l13 24 2 -25 c1 -14 1 -40 0 -58 -2 -23 1 -33 11 -31 37 5 42 -2
18 -23 l-25 -21 24 6 c14 3 31 1 38 -5 10 -8 24 -8 51 0 20 6 47 14 59 17 18
5 23 16 28 63 4 31 10 71 15 87 5 17 10 57 13 91 5 71 26 120 50 118 9 -1 17
1 17 5 0 14 -23 29 -36 24 -8 -3 -27 0 -43 5 -35 12 -71 5 -71 -14 0 -8 -7
-14 -15 -14 -8 0 -15 9 -15 20 0 13 -5 18 -15 14 -17 -7 -21 11 -5 21 15 9 12
35 -4 35 -7 0 -19 -7 -26 -15 -7 -8 -26 -15 -42 -15 -32 0 -46 23 -43 72 1 15
-2 28 -7 28 -4 0 -8 -10 -8 -22 0 -33 -11 -44 -46 -51 -23 -4 -38 -1 -52 11
-11 9 -31 26 -44 37 -33 29 -50 34 -77 23 -28 -10 -41 3 -41 42 0 31 19 61 27
43 2 -7 12 -13 20 -13 11 0 14 6 9 23 -20 69 -19 72 22 101 22 15 43 33 45 39
3 7 22 21 43 32 22 11 54 30 73 42 19 13 42 23 53 23 10 0 21 7 24 15 3 8 30
22 59 31 37 12 66 31 96 61 41 42 51 70 13 35 -50 -45 -97 -73 -172 -102 -45
-17 -82 -35 -82 -40 0 -10 -75 -50 -93 -50 -7 0 -30 -16 -51 -35 -38 -34 -60
-43 -70 -27 -7 11 6 27 27 35 9 3 17 15 17 25 0 19 68 92 87 92 6 0 20 16 32
35 11 19 33 41 48 47 36 16 293 278 293 299 0 9 13 31 29 50 37 42 46 79 20
79 -30 0 -27 14 28 138 9 20 17 48 19 62 1 14 0 19 -3 13 -2 -7 -11 -13 -19
-13 -8 0 -14 -10 -14 -24 0 -13 -7 -29 -15 -36 -8 -7 -15 -25 -15 -41 0 -25
-58 -161 -107 -254 -21 -38 -103 -135 -114 -135 -15 0 -94 -64 -134 -108 -42
-47 -118 -102 -140 -102 -19 0 -33 27 -41 80 -6 37 -4 45 20 68 15 15 54 62
87 105 33 42 66 77 73 77 8 0 28 22 45 49 16 28 39 55 50 61 12 6 27 23 35 38
8 15 23 36 33 47 10 11 27 34 38 52 16 26 109 148 150 197 25 30 100 76 115
71 13 -4 22 4 33 34 18 45 73 111 92 111 7 0 18 7 26 16 11 13 9 14 -17 9 -48
-11 -84 -27 -84 -37 0 -18 -61 -88 -77 -88 -11 0 -13 5 -8 18 4 9 10 28 13 42
2 14 9 30 14 37 6 7 16 34 22 60 11 42 16 48 37 46 22 -3 23 -2 6 11 -15 12
-17 22 -12 58 5 33 3 47 -8 57 -13 10 -16 7 -20 -16 -3 -15 -5 -48 -6 -73 0
-25 -10 -70 -21 -100 -11 -30 -20 -62 -20 -70 0 -19 -98 -140 -114 -140 -6 0
-20 -16 -31 -36 -11 -20 -32 -48 -48 -63 -16 -14 -33 -37 -38 -50 -19 -48 -96
-146 -199 -252 -58 -59 -113 -122 -122 -139 -18 -32 -38 -40 -38 -15 0 30 41
123 65 145 14 13 25 29 25 36 0 8 11 38 25 68 14 30 25 58 25 63 0 5 11 25 25
45 29 43 59 124 50 138 -9 15 -35 12 -35 -5 0 -21 -41 -55 -67 -55 -14 0 -23
-6 -23 -16 0 -10 6 -13 19 -9 24 7 34 -17 17 -41 -8 -11 -17 -33 -20 -51 -9
-38 -30 -58 -52 -49 -13 5 -15 13 -9 39 12 50 15 168 6 210 -7 30 -5 42 10 61
23 30 24 42 3 50 -24 9 -56 -22 -45 -43 10 -19 3 -79 -10 -87 -5 -3 -9 -16 -9
-30 0 -14 -6 -24 -14 -24 -19 0 -26 12 -30 52 -2 18 -7 48 -11 67 -8 33 -8 34
23 29 29 -4 32 -2 32 24 0 15 -4 28 -10 28 -5 0 -10 12 -10 27 l0 26 -25 -23
c-14 -13 -25 -32 -25 -42 0 -10 -7 -21 -15 -25 -9 -3 -15 -15 -13 -26 2 -14
-5 -25 -22 -34 -36 -18 -60 -16 -60 5 0 10 -4 22 -9 28 -5 5 -10 27 -11 49 -4
55 -2 67 10 60 6 -3 10 1 10 9 0 9 -4 16 -10 16 -5 0 -10 5 -10 10 0 6 12 10
26 10 20 0 25 -4 20 -16 -7 -19 23 -74 41 -74 24 0 13 51 -21 96 -31 40 -33
48 -25 79 6 22 6 41 1 52 -8 13 -1 20 37 39 25 13 49 24 53 24 4 0 11 -18 14
-40 4 -21 11 -38 17 -37 6 1 16 -8 22 -21 21 -39 25 -36 21 17 -2 29 -9 58
-15 64 -6 6 -11 19 -11 30 0 10 -7 25 -15 33 -17 17 -20 44 -5 44 15 0 12 28
-5 37 -30 17 -23 95 10 113 18 9 22 17 15 25 -6 7 -8 20 -4 29 4 11 1 16 -11
16 -11 0 -15 -7 -13 -22z m-183 -398 c1 -33 -2 -60 -7 -60 -14 0 -33 26 -25
33 3 4 1 7 -5 7 -22 0 -12 -38 14 -55 23 -15 25 -19 11 -32 -13 -13 -13 -18 1
-46 8 -17 16 -49 17 -71 2 -23 9 -56 16 -74 12 -28 12 -34 -1 -42 -20 -13 -60
35 -60 73 0 16 -3 26 -8 23 -20 -12 -44 26 -53 86 -19 137 -22 195 -9 203 8 5
11 4 6 -3 -12 -20 14 -23 31 -2 10 11 29 20 44 20 25 0 26 -2 28 -60z m154
-362 c-1 -23 7 -60 17 -84 11 -24 20 -56 20 -73 0 -16 5 -33 10 -36 15 -9 12
-68 -4 -91 -10 -13 -13 -34 -9 -66 8 -67 -2 -100 -30 -96 -16 2 -22 10 -22 28
0 15 -9 30 -22 38 -20 11 -23 21 -23 73 0 33 -6 70 -13 82 -8 12 -13 46 -12
77 5 183 2 166 38 188 40 24 52 14 50 -40z m-143 -60 c0 -45 -24 -33 -43 21
-24 69 -21 81 13 41 17 -20 30 -47 30 -62z m290 -163 c0 -8 -4 -15 -10 -15 -5
0 -10 7 -10 15 0 8 5 15 10 15 6 0 10 -7 10 -15z m-261 -791 c15 -33 7 -44
-30 -44 -27 0 -30 3 -23 23 7 25 23 47 34 47 4 0 12 -12 19 -26z m-66 -101
c-7 -2 -19 -2 -25 0 -7 3 -2 5 12 5 14 0 19 -2 13 -5z m-46 -109 c-3 -3 -12
-4 -19 -1 -8 3 -5 6 6 6 11 1 17 -2 13 -5z m728 -104 c3 -5 1 -10 -6 -10 -6 0
-18 -8 -25 -17 -17 -24 -29 -10 -14 16 11 22 35 28 45 11z m-714 -418 c-16 -5
-41 5 -41 17 0 7 10 6 26 -1 15 -7 21 -14 15 -16z m-84 -288 c-3 -3 -12 -4
-19 -1 -8 3 -5 6 6 6 11 1 17 -2 13 -5z"/>
<path d="M360 3035 c0 -8 7 -15 15 -15 8 0 15 7 15 15 0 8 -7 15 -15 15 -8 0
-15 -7 -15 -15z"/>
<path d="M350 2941 c0 -6 5 -13 10 -16 6 -3 10 1 10 9 0 9 -4 16 -10 16 -5 0
-10 -4 -10 -9z"/>
<path d="M551 3993 c-16 -18 -8 -28 13 -16 8 4 12 13 8 20 -5 8 -11 7 -21 -4z"/>
<path d="M1925 4000 c-3 -5 -1 -10 4 -10 6 0 11 5 11 10 0 6 -2 10 -4 10 -3 0
-8 -4 -11 -10z"/>
<path d="M180 3993 c0 -19 32 -53 51 -53 21 0 26 22 7 38 -19 14 -58 25 -58
15z"/>
<path d="M480 3985 c0 -9 7 -32 16 -50 22 -47 15 -70 -20 -70 -16 0 -31 -6
-34 -14 -3 -10 3 -12 27 -6 34 7 36 3 20 -44 -7 -19 -18 -31 -29 -31 -31 0
-31 -16 -2 -46 23 -25 27 -37 27 -91 0 -34 3 -64 7 -68 8 -9 -1 -35 -13 -35
-5 0 -9 9 -9 20 0 11 -7 20 -16 20 -8 0 -12 -4 -9 -10 3 -5 -1 -23 -10 -40
-14 -27 -5 -45 10 -20 11 18 35 -10 35 -41 0 -16 4 -29 10 -29 22 0 39 49 44
126 6 94 16 122 57 149 39 27 38 46 -1 39 -28 -6 -30 -4 -30 22 0 16 12 47 26
67 30 45 24 63 -8 22 -20 -26 -22 -26 -29 -9 -4 10 -8 38 -8 62 -1 23 -5 42
-10 42 -5 0 -11 10 -13 22 -4 27 -38 38 -38 13z"/>
<path d="M660 3970 c0 -5 5 -10 10 -10 6 0 10 5 10 10 0 6 -4 10 -10 10 -5 0
-10 -4 -10 -10z"/>
<path d="M95 3961 c-10 -17 12 -21 25 -6 10 12 10 15 -3 15 -9 0 -18 -4 -22
-9z"/>
<path d="M3591 3946 c-9 -10 -18 -13 -25 -7 -7 6 -23 4 -43 -4 -26 -11 -33
-20 -33 -42 l1 -28 22 28 c24 29 46 34 64 16 8 -8 14 -5 23 10 15 29 8 48 -9
27z"/>
<path d="M211 3886 c-1 -26 2 -37 9 -30 6 6 6 21 1 39 -9 30 -9 30 -10 -9z"/>
<path d="M1688 3913 c7 -3 16 -2 19 1 4 3 -2 6 -13 5 -11 0 -14 -3 -6 -6z"/>
<path d="M1733 3913 c9 -2 23 -2 30 0 6 3 -1 5 -18 5 -16 0 -22 -2 -12 -5z"/>
<path d="M817 3879 c-14 -8 -16 -14 -6 -25 18 -22 39 -17 39 11 0 27 -6 30
-33 14z"/>
<path d="M3000 3883 c1 -21 15 -30 27 -18 10 10 9 14 -3 19 -20 8 -24 8 -24
-1z"/>
<path d="M775 3850 c-3 -5 -1 -10 4 -10 6 0 11 5 11 10 0 6 -2 10 -4 10 -3 0
-8 -4 -11 -10z"/>
<path d="M3118 3853 c7 -3 16 -2 19 1 4 3 -2 6 -13 5 -11 0 -14 -3 -6 -6z"/>
<path d="M1220 3830 c0 -6 9 -20 20 -32 l20 -22 0 26 c0 15 6 29 13 31 6 3 -3
6 -20 6 -18 1 -33 -4 -33 -9z"/>
<path d="M2975 3830 c-3 -5 1 -10 9 -10 9 0 16 5 16 10 0 6 -4 10 -9 10 -6 0
-13 -4 -16 -10z"/>
<path d="M3222 3819 c2 -7 10 -15 17 -17 8 -3 12 1 9 9 -2 7 -10 15 -17 17 -8
3 -12 -1 -9 -9z"/>
<path d="M782 3715 c0 -28 -8 -59 -21 -81 -12 -19 -21 -44 -21 -56 0 -21 -33
-74 -59 -96 -9 -7 -21 -35 -27 -63 -10 -44 -9 -50 5 -47 8 2 22 22 31 44 8 23
27 59 41 80 14 21 32 55 39 74 7 19 24 45 38 57 18 15 23 26 17 40 -5 10 -7
24 -6 32 4 25 -9 61 -23 61 -10 0 -14 -13 -14 -45z"/>
<path d="M3226 3743 c-9 -10 15 -33 34 -33 17 0 35 -25 32 -42 -3 -11 10 -10
28 2 13 8 13 11 0 24 -23 22 -87 55 -94 49z"/>
<path d="M1237 3702 c-18 -20 -23 -52 -8 -52 10 0 36 58 29 65 -3 3 -12 -3
-21 -13z"/>
<path d="M3347 3704 c3 -8 10 -13 15 -12 16 6 14 21 -4 24 -11 1 -15 -3 -11
-12z"/>
<path d="M595 3610 c4 -6 11 -8 16 -5 14 9 11 15 -7 15 -8 0 -12 -5 -9 -10z"/>
<path d="M645 3605 c-3 -8 -7 -22 -10 -30 -2 -8 -1 -15 4 -15 5 0 12 -10 16
-22 7 -20 9 -17 12 17 3 22 9 45 15 52 8 10 5 13 -11 13 -12 0 -24 -7 -26 -15z"/>
<path d="M1177 3613 c-11 -10 -8 -43 3 -43 6 0 10 11 10 25 0 26 -2 29 -13 18z"/>
<path d="M17 3306 c-28 -21 -21 -39 8 -20 14 9 25 20 25 25 0 13 -12 11 -33
-5z"/>
<path d="M3194 3219 c-3 -6 -2 -15 2 -19 12 -12 38 5 30 19 -9 14 -23 14 -32
0z"/>
<path d="M1161 3200 c-13 -11 -18 -20 -12 -20 14 0 71 28 71 35 0 12 -37 2
-59 -15z"/>
<path d="M3135 3180 c4 -6 11 -8 16 -5 14 9 11 15 -7 15 -8 0 -12 -5 -9 -10z"/>
<path d="M1086 3164 c-5 -12 -2 -15 10 -10 8 3 18 6 20 6 3 0 2 5 -1 10 -9 15
-22 12 -29 -6z"/>
<path d="M4100 3140 c0 -5 4 -10 9 -10 6 0 13 5 16 10 3 6 -1 10 -9 10 -9 0
-16 -4 -16 -10z"/>
<path d="M1061 3134 c-1 -6 -17 -28 -36 -50 -19 -21 -35 -42 -35 -46 0 -15 21
-8 27 10 3 9 17 29 31 44 13 14 22 32 19 40 -3 7 -6 8 -6 2z"/>
<path d="M3190 3130 c-12 -8 -11 -10 8 -10 12 0 22 5 22 10 0 13 -11 13 -30 0z"/>
<path d="M3460 3080 c-8 -5 -11 -12 -8 -16 10 -9 38 3 38 16 0 12 -10 13 -30
0z"/>
<path d="M3581 3076 c-7 -8 -27 -16 -44 -18 l-32 -3 31 -30 c18 -16 37 -48 44
-70 7 -22 21 -58 31 -79 20 -44 18 -53 -17 -66 -13 -5 -24 -15 -24 -21 0 -6 7
-9 15 -5 9 3 15 0 15 -9 0 -8 6 -15 13 -15 6 0 0 -11 -14 -23 -19 -18 -23 -27
-15 -39 7 -11 5 -29 -8 -61 -14 -36 -21 -44 -36 -40 -21 6 -29 -20 -11 -32 5
-3 12 -19 16 -36 6 -24 9 -28 21 -18 8 6 14 24 14 40 0 18 5 29 14 29 7 0 19
14 26 30 14 35 30 38 48 10 14 -24 45 -26 62 -5 7 8 29 15 50 15 41 0 59 20
34 41 -11 9 -18 8 -33 -5 -16 -15 -22 -15 -40 -4 -12 7 -21 20 -21 28 0 24
-21 40 -52 40 -18 0 -28 -5 -28 -14 0 -17 -18 -31 -27 -22 -3 3 -1 11 5 18 6
8 13 38 15 68 2 30 10 56 16 58 9 3 11 -8 6 -41 -5 -29 -3 -47 4 -52 15 -9 71
16 71 32 0 6 14 38 30 70 17 31 30 63 30 70 0 7 -15 20 -32 29 -18 9 -44 25
-57 35 -25 20 -61 25 -61 9 0 -5 -9 -10 -20 -10 -14 0 -20 7 -20 24 0 13 5 26
11 28 8 3 8 12 -3 32 -12 24 -16 25 -27 12z m128 -133 c-7 -10 -14 -19 -15
-21 -1 -1 -9 0 -18 4 -29 11 -19 34 15 34 28 0 30 -2 18 -17z"/>
<path d="M1310 3039 c-22 -22 -52 -58 -66 -80 -14 -22 -31 -42 -39 -46 -8 -3
-15 -13 -15 -23 0 -10 -21 -37 -47 -60 -93 -82 -203 -192 -203 -201 0 -14 32
5 85 51 25 22 50 40 55 40 5 0 12 9 15 20 3 11 13 20 21 20 8 0 17 8 21 18 3
9 36 47 73 84 37 37 65 70 62 73 -3 3 -2 5 2 5 4 0 15 -7 24 -16 12 -13 17
-14 20 -4 3 7 -3 19 -12 25 -26 20 -19 48 24 93 52 54 35 55 -20 1z"/>
<path d="M3992 3002 c2 -21 10 -28 33 -32 29 -6 30 -6 6 -12 -23 -7 -24 -9 -9
-25 8 -10 13 -24 11 -30 -3 -9 6 -13 29 -13 19 0 39 -5 46 -12 6 -6 15 -8 19
-4 4 4 3 10 -3 14 -6 4 -14 17 -18 30 -6 18 -4 22 13 22 12 0 21 4 21 8 0 15
-36 42 -56 42 -11 0 -37 9 -57 19 l-38 19 3 -26z"/>
<path d="M1371 2944 c0 -11 3 -14 6 -6 3 7 2 16 -1 19 -3 4 -6 -2 -5 -13z"/>
<path d="M3152 2928 c6 -18 28 -21 28 -4 0 9 -7 16 -16 16 -9 0 -14 -5 -12
-12z"/>
<path d="M3224 2929 c-4 -7 0 -18 10 -25 10 -7 15 -17 11 -23 -9 -15 18 -14
33 1 19 19 15 51 -4 44 -9 -4 -22 -2 -29 4 -10 8 -15 8 -21 -1z"/>
<path d="M4314 2887 c-3 -9 -4 -22 -2 -30 2 -11 6 -11 21 3 15 15 16 19 2 30
-12 10 -16 9 -21 -3z"/>
<path d="M4380 2880 c0 -5 5 -10 10 -10 6 0 10 5 10 10 0 6 -4 10 -10 10 -5 0
-10 -4 -10 -10z"/>
<path d="M3190 2845 c0 -28 25 -44 42 -27 6 6 4 17 -8 31 -24 28 -34 27 -34
-4z"/>
<path d="M3125 2747 c1 -29 4 -57 6 -63 2 -6 -9 -22 -26 -36 -30 -26 -30 -26
-10 -48 19 -21 19 -22 -3 -85 -18 -53 -20 -68 -10 -92 10 -25 12 -26 16 -8 2
11 13 32 24 47 11 16 16 33 13 38 -9 15 14 40 36 40 14 0 19 -7 19 -29 0 -39
-9 -61 -26 -61 -8 0 -14 -7 -14 -15 0 -8 7 -15 15 -15 23 0 18 -26 -10 -55
-17 -16 -36 -24 -53 -23 -47 3 -82 -2 -82 -11 0 -5 10 -11 23 -13 19 -3 22 -8
19 -40 -2 -26 1 -38 10 -38 7 -1 2 -7 -12 -15 l-25 -13 28 -7 c16 -4 38 -3 50
3 24 11 55 11 75 -2 14 -9 16 -46 2 -46 -5 0 -10 -4 -10 -10 0 -5 9 -10 19
-10 23 0 26 -4 35 -45 6 -27 5 -28 -7 -12 -8 9 -21 17 -30 17 -9 0 -24 11 -33
25 -14 21 -24 25 -65 25 -47 0 -49 1 -64 37 -12 29 -18 34 -25 23 -5 -8 -7
-17 -4 -22 5 -7 -49 -63 -75 -77 -22 -13 -3 -32 25 -25 18 5 24 2 24 -9 0 -9
14 -29 31 -45 44 -41 34 -67 -21 -59 -22 3 -43 1 -46 -4 -5 -9 9 -13 34 -10 6
1 17 -10 22 -24 19 -51 -11 -60 -59 -19 -26 22 -34 24 -47 13 -11 -9 -18 -9
-22 -2 -5 8 -15 5 -30 -7 l-23 -19 31 -16 c17 -9 35 -13 39 -10 5 3 32 0 59
-7 52 -11 73 -38 52 -63 -7 -8 2 -17 26 -28 44 -22 53 -21 47 1 -2 10 3 24 11
31 13 11 17 9 26 -13 5 -14 16 -26 25 -26 8 0 15 -4 15 -10 0 -5 -8 -10 -17
-10 -80 0 252 -129 372 -145 107 -14 198 -61 350 -179 l60 -47 8 53 c15 107
26 148 38 148 5 0 6 -7 3 -15 -4 -9 -1 -15 8 -15 13 0 52 106 43 120 -3 4 -18
10 -35 13 -21 5 -30 12 -30 26 0 23 44 53 73 49 26 -4 26 -4 33 -216 6 -156 2
-172 -45 -172 -41 0 -50 -15 -36 -58 l13 -37 109 1 c59 0 141 4 180 9 56 6 76
5 89 -6 9 -7 31 -12 50 -11 19 2 44 -2 55 -9 16 -8 27 -8 45 2 18 9 30 10 49
1 14 -7 28 -12 30 -12 3 0 5 33 5 74 0 80 -7 89 -60 76 -14 -4 -38 -3 -54 2
-18 4 -34 4 -42 -3 -9 -7 -19 -7 -33 0 -27 15 -68 14 -74 -1 -2 -7 2 -21 11
-31 8 -9 12 -20 8 -24 -4 -4 -10 -2 -15 5 -4 6 -31 16 -61 22 -78 15 -91 30
-84 99 5 60 -5 112 -24 119 -20 6 -24 -45 -7 -103 19 -66 14 -91 -21 -99 -51
-13 -64 0 -64 62 1 146 21 357 36 372 14 13 17 13 29 -4 8 -10 12 -23 9 -27
-3 -5 2 -19 10 -31 18 -25 20 -19 16 55 l-2 49 44 -4 43 -3 1 45 c1 68 2 70
25 70 18 0 21 5 17 30 -3 17 0 30 6 30 6 0 5 5 -2 12 -16 16 -15 38 2 38 7 0
19 -7 27 -16 10 -13 10 -17 -2 -25 -12 -8 -11 -11 4 -20 13 -8 15 -14 7 -29
-5 -10 -7 -32 -4 -49 4 -19 2 -37 -6 -46 -10 -13 -9 -19 6 -36 11 -12 24 -37
29 -56 6 -20 17 -39 25 -44 93 -48 134 -61 151 -50 26 15 37 14 42 -6 3 -10 5
16 6 58 1 74 0 77 -24 81 -14 3 -33 0 -42 -7 -9 -7 -23 -11 -30 -8 -7 3 -27 0
-45 -6 -28 -10 -35 -9 -45 6 -7 9 -13 30 -13 46 0 27 2 28 33 22 49 -11 49
-11 54 1 2 7 -11 22 -29 35 -87 61 -112 109 -58 109 36 0 39 14 8 31 -13 7
-18 14 -11 16 18 6 4 33 -17 33 -10 0 -23 7 -30 15 -20 25 -151 84 -210 95
-30 6 -68 7 -85 3 -16 -3 -40 -6 -51 -4 -43 4 -71 -52 -39 -79 23 -19 7 -32
-19 -15 -21 14 -25 14 -36 0 -7 -8 -21 -15 -31 -15 -20 0 -25 -25 -11 -48 7
-9 13 -8 27 8 21 24 35 18 35 -16 0 -17 -5 -24 -20 -24 -11 0 -20 -7 -20 -15
0 -9 -7 -18 -15 -21 -23 -9 -18 -23 25 -62 44 -41 42 -50 -14 -86 -25 -16 -27
-20 -13 -28 10 -5 17 -19 17 -31 0 -13 4 -27 9 -32 6 -6 11 -29 12 -53 3 -35
-2 -47 -24 -68 -15 -14 -27 -20 -27 -15 0 5 -13 18 -30 28 -22 13 -30 25 -30
45 0 36 -25 37 -56 1 -20 -23 -25 -25 -39 -13 -10 8 -25 14 -34 15 -9 0 -27 7
-39 17 l-24 16 23 32 c20 26 21 33 9 40 -8 5 -17 7 -21 4 -4 -2 -10 0 -13 5
-11 16 28 23 40 7 6 -9 16 -16 22 -16 6 0 12 -5 14 -12 2 -6 10 -8 16 -4 8 5
10 19 6 43 -6 33 -6 34 14 22 12 -7 24 -11 27 -7 12 11 -7 57 -26 63 -24 8
-25 21 -1 28 9 2 25 8 34 12 13 5 15 2 11 -14 -6 -25 24 -30 33 -7 3 8 12 12
20 9 16 -6 18 5 4 27 -7 12 -12 12 -21 3 -9 -9 -19 -7 -41 12 -16 14 -34 25
-39 25 -5 0 -9 8 -9 18 0 10 -7 27 -15 38 -8 10 -15 27 -15 37 0 20 -22 22
-49 6 -16 -11 -17 -15 -4 -41 11 -20 20 -27 32 -23 10 3 18 0 19 -7 1 -7 5
-28 8 -45 7 -35 -9 -46 -21 -15 -6 16 -7 16 -20 -1 -12 -17 -15 -16 -31 18 -9
20 -17 50 -16 67 1 23 -2 28 -11 19 -17 -17 -39 -13 -35 6 2 9 21 26 43 39 52
29 56 54 10 76 l-36 18 -9 -26 c-6 -14 -10 -32 -10 -40 0 -19 -24 -18 -41 2
-8 10 -21 13 -36 9 -25 -6 -63 9 -63 25 0 6 10 10 23 10 27 0 39 9 31 21 -3 5
-14 5 -24 -1 -32 -17 -45 -3 -45 48 0 56 -30 126 -51 118 -40 -17 -46 -16 -21
4 34 27 34 38 2 50 -27 10 -33 34 -12 47 7 4 18 21 25 36 14 33 28 28 37 -12
10 -47 31 -58 55 -30 24 29 25 57 5 80 -9 9 -20 48 -24 90 -8 69 -7 75 13 91
23 19 16 35 -11 23 -26 -11 -54 -6 -84 16 -15 10 -30 19 -33 19 -11 0 -6 -19
10 -34 14 -15 13 -16 -8 -16 -18 0 -20 -2 -8 -10 8 -5 27 -10 43 -10 22 0 27
-5 27 -24 0 -25 -31 -59 -37 -40 -2 6 -28 9 -63 8 -62 -3 -84 -10 -75 -24 3
-4 1 -19 -4 -32 -9 -20 -10 -19 -10 15 -1 26 5 44 18 55 19 17 38 101 24 103
-5 1 -27 3 -50 4 l-42 3 4 -51z m101 -114 c-10 -10 -19 5 -10 18 6 11 8 11 12
0 2 -7 1 -15 -2 -18z m98 -40 c-10 -40 -16 -48 -25 -31 -11 20 0 58 17 58 11
0 13 -7 8 -27z m-54 -189 c0 -17 -19 -29 -31 -17 -4 4 -6 18 -2 31 4 18 8 20
19 11 8 -6 14 -17 14 -25z m60 -59 c10 -13 9 -15 -8 -15 -11 0 -28 -7 -36 -16
-22 -21 -21 4 1 28 20 22 27 22 43 3z m-125 -55 c3 -5 1 -10 -4 -10 -6 0 -11
5 -11 10 0 6 2 10 4 10 3 0 8 -4 11 -10z m-75 -10 c0 -5 -5 -10 -11 -10 -5 0
-7 5 -4 10 3 6 8 10 11 10 2 0 4 -4 4 -10z m1038 -97 c2 -9 -11 -14 -42 -15
-25 -1 -53 -2 -61 -2 -32 -2 -14 19 22 25 52 9 76 6 81 -8z m-898 -18 c0 -8
-4 -15 -10 -15 -5 0 -10 7 -10 15 0 8 5 15 10 15 6 0 10 -7 10 -15z m90 2 c0
-17 -52 -16 -58 1 -2 8 7 12 27 12 19 0 31 -5 31 -13z m850 -68 c0 -11 -4 -17
-10 -14 -5 3 -10 13 -10 21 0 8 5 14 10 14 6 0 10 -9 10 -21z m-1010 -59 c0
-5 -7 -10 -15 -10 -8 0 -15 5 -15 10 0 6 7 10 15 10 8 0 15 -4 15 -10z m294 4
c20 -8 21 -34 2 -34 -7 0 -16 9 -19 20 -6 22 -5 23 17 14z m454 -70 c-1 -13
-5 -24 -8 -24 -12 0 -29 40 -24 55 9 23 34 -1 32 -31z m-488 12 c0 -3 -4 -8
-10 -11 -5 -3 -10 -1 -10 4 0 6 5 11 10 11 6 0 10 -2 10 -4z m-346 -16 c16 -6
26 -17 26 -30 0 -21 24 -28 35 -10 10 17 25 11 25 -10 0 -11 -5 -20 -11 -20
-6 0 -18 -9 -28 -21 -15 -19 -20 -19 -63 -9 -42 11 -47 15 -53 47 -3 19 -5 36
-3 38 4 3 42 24 45 25 1 0 13 -4 27 -10z m936 -31 c0 -22 -6 -32 -22 -38 -30
-11 -34 2 -13 45 19 40 35 37 35 -7z m164 -24 c4 -10 -2 -19 -17 -24 -31 -12
-41 -2 -21 20 21 23 30 24 38 4z m-170 -77 c23 -37 -36 -77 -64 -44 -10 13 -9
20 4 42 19 28 43 29 60 2z m-794 -8 c0 -4 -13 -13 -30 -20 -16 -7 -30 -19 -30
-26 0 -8 -7 -14 -15 -14 -8 0 -15 5 -15 10 0 6 5 10 10 10 6 0 10 10 10 23 0
19 5 23 35 24 19 1 35 -2 35 -7z m255 -60 c0 -7 -6 -15 -12 -17 -8 -3 -13 4
-13 17 0 13 5 20 13 18 6 -3 12 -11 12 -18z"/>
<path d="M1470 2755 c0 -9 7 -18 15 -22 32 -12 72 -123 45 -123 -6 0 -24 15
-40 33 -16 17 -30 27 -30 20 0 -11 84 -103 95 -103 4 0 5 8 4 18 -3 32 1 42
16 42 17 0 20 25 5 35 -6 4 -10 21 -8 39 3 46 -11 65 -30 40 -10 -14 -16 -15
-19 -6 -7 17 -32 42 -44 42 -5 0 -9 -7 -9 -15z"/>
<path d="M1177 2716 c-4 -11 5 -27 26 -49 51 -49 99 -88 104 -83 9 9 -37 65
-67 83 -17 9 -30 20 -30 23 0 4 -6 14 -13 24 -13 17 -14 17 -20 2z"/>
<path d="M1440 2703 c0 -13 5 -23 10 -23 13 0 13 11 0 30 -8 12 -10 11 -10 -7z"/>
<path d="M1346 2568 c0 -21 12 -46 32 -68 17 -19 39 -45 49 -57 13 -17 22 -20
33 -13 13 9 12 12 -5 22 -42 23 -95 91 -95 120 0 15 -4 28 -8 28 -4 0 -7 -15
-6 -32z"/>
<path d="M3990 2565 c0 -14 5 -25 10 -25 6 0 10 11 10 25 0 14 -4 25 -10 25
-5 0 -10 -11 -10 -25z"/>
<path d="M4060 2540 c-13 -9 -13 -12 2 -20 25 -15 50 -42 44 -47 -3 -3 -23 2
-46 11 -37 15 -43 15 -65 0 -13 -8 -25 -25 -27 -37 -3 -19 -4 -20 -20 -4 -17
17 -40 22 -51 11 -8 -8 23 -66 41 -77 17 -11 15 -63 -4 -81 -14 -15 -14 -17 3
-22 10 -3 26 -10 35 -15 20 -10 72 -12 81 -2 4 3 2 12 -4 20 -9 10 -8 17 1 28
17 20 57 19 100 -3 l35 -17 37 34 37 33 -27 34 c-15 19 -35 37 -44 40 -19 6
-25 34 -8 34 24 0 7 28 -20 33 -21 5 -31 14 -36 32 -7 27 -36 33 -64 15z m55
-120 c3 -5 -1 -10 -10 -10 -9 0 -13 5 -10 10 3 6 8 10 10 10 2 0 7 -4 10 -10z"/>
<path d="M3530 2480 c-9 -6 -13 -22 -12 -44 2 -19 -1 -43 -7 -54 -8 -14 -6
-24 4 -38 8 -11 14 -28 15 -39 0 -13 -3 -16 -8 -8 -4 6 -20 15 -35 18 -24 6
-27 4 -27 -18 0 -24 3 -25 37 -20 24 4 34 3 30 -4 -4 -6 0 -16 8 -23 21 -17
75 8 75 35 0 12 4 25 8 31 5 5 6 38 3 74 -6 60 -8 65 -31 68 -14 2 -30 10 -36
17 -6 9 -15 10 -24 5z"/>
<path d="M3788 2460 c2 -16 9 -30 14 -30 13 0 6 53 -8 57 -7 2 -9 -8 -6 -27z"/>
<path d="M4572 2481 c-11 -7 -10 -10 3 -15 23 -9 25 -8 25 9 0 17 -9 19 -28 6z"/>
<path d="M3655 2460 c-20 -22 -20 -22 13 -39 27 -14 27 -14 36 16 10 33 -25
49 -49 23z"/>
<path d="M4323 2454 l-23 -25 25 -9 c45 -17 75 16 43 48 -16 16 -19 15 -45
-14z"/>
<path d="M215 2450 c-3 -5 -1 -10 4 -10 6 0 11 5 11 10 0 6 -2 10 -4 10 -3 0
-8 -4 -11 -10z"/>
<path d="M142 2429 c-13 -5 -26 -18 -29 -29 -3 -11 -11 -20 -18 -20 -19 0 -48
-38 -42 -55 8 -19 27 -20 27 0 0 8 22 32 49 52 70 54 76 78 13 52z"/>
<path d="M3470 2430 c0 -5 5 -10 10 -10 6 0 10 5 10 10 0 6 -4 10 -10 10 -5 0
-10 -4 -10 -10z"/>
<path d="M4505 2400 c-18 -20 -18 -20 8 -20 28 0 32 6 19 28 -7 9 -13 8 -27
-8z"/>
<path d="M3856 2402 c-3 -6 -1 -14 5 -17 15 -10 25 3 12 16 -7 7 -13 7 -17 1z"/>
<path d="M4311 2371 c-23 -15 15 -61 51 -61 l30 0 -29 34 c-31 39 -33 39 -52
27z"/>
<path d="M1490 2343 c0 -5 9 -18 20 -28 11 -10 20 -14 20 -8 0 5 -9 18 -20 28
-11 10 -20 14 -20 8z"/>
<path d="M3760 2323 c0 -10 -3 -28 -6 -39 -4 -16 0 -23 15 -27 27 -7 26 -16
-4 -51 -14 -16 -25 -33 -25 -38 0 -5 -8 -4 -19 1 -10 6 -21 7 -25 4 -12 -12
-6 -32 12 -37 12 -4 17 -15 16 -38 -1 -33 11 -58 28 -58 5 0 8 8 7 18 -1 9 1
25 6 35 4 9 5 24 1 32 -9 25 11 65 34 65 11 0 25 9 32 20 7 11 23 20 35 20 20
0 21 2 8 27 -16 31 -33 43 -61 43 -13 0 -24 8 -27 20 -6 25 -27 27 -27 3z"/>
<path d="M4564 2305 c-10 -8 -29 -15 -42 -15 -32 0 -23 -24 11 -28 15 -2 27
-10 27 -17 0 -8 9 -19 20 -25 19 -10 20 -8 20 39 0 56 -8 67 -36 46z"/>
<path d="M1566 2255 c14 -19 28 -35 30 -35 8 0 -11 36 -27 53 -30 29 -32 19
-3 -18z"/>
<path d="M2960 2283 c0 -6 -10 -13 -22 -15 -17 -2 -27 -15 -38 -45 -14 -43
-36 -56 -46 -28 -4 8 -12 15 -20 15 -19 0 -7 -26 22 -45 24 -15 26 -15 49 7
14 13 25 29 25 36 0 7 11 17 25 22 14 5 25 15 25 22 0 17 -20 47 -20 31z"/>
<path d="M4415 2250 c3 -5 8 -10 11 -10 2 0 4 5 4 10 0 6 -5 10 -11 10 -5 0
-7 -4 -4 -10z"/>
<path d="M600 2090 c0 -5 5 -10 10 -10 6 0 10 5 10 10 0 6 -4 10 -10 10 -5 0
-10 -4 -10 -10z"/>
<path d="M4532 2056 c-49 -17 -59 -42 -31 -72 12 -13 33 -24 46 -24 16 0 23
-6 23 -19 0 -10 7 -24 15 -31 13 -11 15 -2 15 74 0 95 -1 97 -68 72z"/>
<path d="M3820 2010 c0 -13 5 -20 13 -17 6 2 12 10 12 17 0 7 -6 15 -12 18 -8
2 -13 -5 -13 -18z"/>
<path d="M1079 1961 c7 -5 10 -14 6 -21 -7 -11 21 -50 37 -50 14 0 9 39 -9 60
-10 11 -24 20 -33 20 -12 0 -13 -2 -1 -9z"/>
<path d="M979 1943 c-9 -101 -7 -144 5 -149 8 -3 41 -6 73 -7 l58 -2 3 44 3
43 -33 -5 c-39 -6 -79 10 -57 23 19 13 -5 60 -31 60 -11 0 -20 -3 -21 -7z
m111 -109 c0 -2 -9 -4 -20 -4 -11 0 -20 4 -20 9 0 5 9 7 20 4 11 -3 20 -7 20
-9z"/>
<path d="M3780 1860 c-8 -5 -11 -12 -8 -16 10 -9 38 3 38 16 0 12 -10 13 -30
0z"/>
<path d="M545 1802 c-5 -34 7 -92 20 -92 3 0 5 29 5 65 0 71 -15 87 -25 27z"/>
<path d="M4260 1652 c-41 -27 -45 -47 -10 -47 17 0 29 8 38 28 20 41 11 46
-28 19z"/>
<path d="M4550 1655 c-42 -11 -44 -12 -23 -23 12 -7 33 -12 47 -12 21 0 26 5
26 25 0 14 -1 24 -2 24 -2 -1 -23 -7 -48 -14z"/>
<path d="M4465 1580 c3 -5 8 -10 11 -10 2 0 4 5 4 10 0 6 -5 10 -11 10 -5 0
-7 -4 -4 -10z"/>
<path d="M2 1520 c0 -14 2 -19 5 -12 2 6 2 18 0 25 -3 6 -5 1 -5 -13z"/>
<path d="M530 1450 c0 -5 7 -10 15 -10 8 0 15 5 15 10 0 6 -7 10 -15 10 -8 0
-15 -4 -15 -10z"/>
<path d="M5 1420 c3 -5 13 -10 21 -10 8 0 12 5 9 10 -3 6 -13 10 -21 10 -8 0
-12 -4 -9 -10z"/>
<path d="M441 1364 c-19 -24 -28 -54 -17 -54 2 0 13 18 24 40 23 47 21 50 -7
14z"/>
<path d="M4452 1180 c-38 -23 -79 -101 -59 -111 7 -4 34 -10 60 -14 62 -8 53
-18 -19 -20 -30 -2 -73 -10 -94 -20 -41 -18 -52 -35 -25 -35 9 0 15 -9 15 -24
0 -24 23 -56 41 -56 5 0 9 -4 9 -10 0 -5 -9 -10 -20 -10 -14 0 -20 -7 -20 -24
0 -19 4 -23 20 -19 14 4 20 0 20 -10 0 -25 -22 -32 -36 -12 -8 11 -30 19 -58
22 -44 3 -46 2 -60 -32 -13 -31 -19 -35 -50 -35 -28 0 -36 -4 -36 -19 0 -32
21 -81 35 -81 8 0 20 -6 27 -12 27 -25 60 -39 78 -33 18 6 59 -2 105 -21 18
-7 18 -6 6 9 -7 9 -19 17 -26 17 -7 0 -18 6 -25 14 -9 12 -7 21 11 45 26 35
49 47 60 29 6 -9 16 -5 38 16 28 27 31 28 38 11 4 -12 2 -20 -7 -23 -22 -8
-60 -50 -60 -67 0 -22 26 -19 49 6 11 12 23 19 28 16 4 -2 18 -1 30 4 16 6 21
13 16 25 -5 14 -1 16 25 12 28 -4 32 -2 32 18 0 12 -6 25 -12 28 -10 5 -10 7
0 12 7 3 12 25 12 55 0 47 -1 49 -29 49 -16 0 -31 6 -33 12 -3 7 -13 -6 -23
-29 -17 -40 -36 -53 -77 -53 -14 0 -18 8 -18 35 0 34 12 46 25 25 11 -17 23
-11 41 19 20 33 59 55 92 52 21 -2 22 1 22 68 l0 70 -72 3 c-62 3 -73 6 -76
21 -2 11 8 32 24 48 37 38 21 56 -24 29z m-132 -384 c0 -3 -4 -8 -10 -11 -5
-3 -10 -1 -10 4 0 6 5 11 10 11 6 0 10 -2 10 -4z m230 -21 c0 -8 -4 -15 -10
-15 -5 0 -10 7 -10 15 0 8 5 15 10 15 6 0 10 -7 10 -15z m-264 -95 c1 -34 0
-34 -27 -20 -25 14 -24 24 4 38 12 6 22 11 22 11 0 1 0 -13 1 -29z"/>
<path d="M1661 844 c0 -11 3 -14 6 -6 3 7 2 16 -1 19 -3 4 -6 -2 -5 -13z"/>
<path d="M1140 839 c0 -5 5 -7 10 -4 6 3 10 8 10 11 0 2 -4 4 -10 4 -5 0 -10
-5 -10 -11z"/>
<path d="M1712 821 c-6 -17 -9 -31 -6 -31 7 0 25 52 20 57 -2 2 -8 -10 -14
-26z"/>
<path d="M957 823 c-4 -3 -7 -11 -7 -17 0 -6 5 -5 12 2 6 6 9 14 7 17 -3 3 -9
2 -12 -2z"/>
<path d="M856 800 c3 -14 11 -32 16 -40 6 -10 7 -7 2 10 -3 14 -11 32 -16 40
-6 10 -7 7 -2 -10z"/>
<path d="M1126 805 c-9 -26 -7 -32 5 -12 6 10 9 21 6 23 -2 3 -7 -2 -11 -11z"/>
<path d="M3090 797 c0 -5 7 -15 15 -23 8 -8 19 -23 24 -32 5 -9 12 -14 15 -11
4 3 -7 21 -24 40 -16 19 -30 30 -30 26z"/>
<path d="M936 763 c-6 -14 -5 -15 5 -6 7 7 10 15 7 18 -3 3 -9 -2 -12 -12z"/>
<path d="M3173 743 c9 -2 23 -2 30 0 6 3 -1 5 -18 5 -16 0 -22 -2 -12 -5z"/>
<path d="M1422 710 c0 -14 2 -19 5 -12 2 6 2 18 0 25 -3 6 -5 1 -5 -13z"/>
<path d="M2074 694 c-27 -26 -29 -32 -35 -143 -4 -64 -8 -166 -8 -227 -1 -95
2 -115 18 -135 l19 -23 0 28 c0 16 -4 23 -8 16 -15 -25 -19 40 -14 220 6 198
13 241 47 265 11 8 18 17 15 20 -2 3 -18 -7 -34 -21z"/>
<path d="M2940 705 c-7 -8 -17 -12 -24 -8 -6 3 -5 0 2 -8 10 -10 15 -11 20 -2
4 7 19 16 32 22 23 9 23 10 4 10 -12 1 -27 -6 -34 -14z"/>
<path d="M1040 696 c0 -20 17 -29 23 -13 2 7 17 13 33 15 46 4 40 12 -9 12
-34 0 -47 -4 -47 -14z"/>
<path d="M1775 701 c3 -5 1 -12 -5 -16 -5 -3 -10 -10 -10 -15 0 -6 9 -2 20 7
24 21 26 33 4 33 -8 0 -13 -4 -9 -9z"/>
<path d="M1900 696 c0 -8 -6 -16 -13 -19 -9 -3 -17 -53 -25 -173 -7 -93 -16
-188 -19 -211 -4 -34 -2 -43 9 -43 11 0 15 14 17 58 4 152 23 358 34 367 16
13 20 35 7 35 -5 0 -10 -6 -10 -14z"/>
<path d="M2360 691 c0 -12 5 -21 10 -21 6 0 10 6 10 14 0 8 -4 18 -10 21 -5 3
-10 -3 -10 -14z"/>
<path d="M996 684 c-3 -9 -6 -40 -6 -69 0 -43 -4 -54 -17 -58 -11 -3 -7 -5 10
-6 l27 -1 0 75 c0 76 -3 88 -14 59z"/>
<path d="M1212 687 c-11 -13 -16 -46 -14 -86 3 -45 25 -6 28 49 2 54 2 56 -14
37z"/>
<path d="M1364 672 c-17 -15 -40 -45 -51 -67 -40 -79 -63 -136 -63 -155 0 -22
23 -111 39 -153 6 -15 8 -27 6 -27 -3 0 1 -15 8 -33 8 -17 12 -39 9 -47 -5
-13 -3 -13 11 -1 15 12 17 11 17 -3 0 -19 -36 -22 -43 -3 -4 8 -6 9 -6 0 -1
-8 -12 -10 -35 -6 -19 3 -36 1 -40 -6 -5 -8 16 -11 68 -11 69 0 76 2 76 20 0
10 -8 23 -17 28 -10 6 -27 49 -45 113 -30 113 -33 140 -19 167 6 9 24 50 42
89 19 43 39 75 51 78 10 4 16 10 13 15 -3 5 1 10 7 13 7 2 11 7 8 10 -3 3 -19
-7 -36 -21z"/>
<path d="M1682 669 c6 -17 8 -48 5 -70 -3 -21 -2 -39 3 -39 4 0 11 21 15 46 5
34 2 52 -10 70 -21 33 -26 30 -13 -7z"/>
<path d="M1084 665 c26 -98 50 -174 53 -171 6 6 -33 150 -46 172 -12 18 -12
18 -7 -1z"/>
<path d="M1447 673 c-4 -3 -7 -31 -7 -62 -1 -31 -7 -127 -14 -215 -10 -129
-16 -160 -29 -168 -10 -5 -17 -21 -17 -36 1 -25 1 -26 12 -7 7 11 17 26 24 32
7 7 15 45 18 85 29 390 29 388 13 371z"/>
<path d="M2276 667 c5 -13 2 -16 -9 -11 -8 3 -18 0 -23 -7 -4 -7 -3 -10 4 -5
6 3 15 -2 21 -11 8 -14 12 -16 22 -5 18 17 36 15 59 -8 11 -11 20 -16 20 -11
0 17 -31 41 -52 41 -11 0 -27 8 -34 18 -13 16 -14 16 -8 -1z"/>
<path d="M2600 666 c0 -8 5 -18 10 -21 6 -3 10 3 10 14 0 12 -4 21 -10 21 -5
0 -10 -6 -10 -14z"/>
<path d="M2751 664 c0 -11 3 -14 6 -6 3 7 2 16 -1 19 -3 4 -6 -2 -5 -13z"/>
<path d="M4380 650 c0 -5 5 -10 10 -10 6 0 10 5 10 10 0 6 -4 10 -10 10 -5 0
-10 -4 -10 -10z"/>
<path d="M1557 643 c-11 -10 -8 -103 3 -103 6 0 10 25 10 55 0 56 -1 60 -13
48z"/>
<path d="M2211 634 c0 -11 3 -14 6 -6 3 7 2 16 -1 19 -3 4 -6 -2 -5 -13z"/>
<path d="M2390 505 c-2 -82 -4 -182 -4 -222 -1 -43 -6 -77 -14 -85 -6 -6 -11
-23 -11 -37 1 -21 2 -22 6 -6 3 11 11 27 19 36 12 13 14 58 11 240 -2 209 -3
214 -7 74z"/>
<path d="M2904 628 c-9 -26 -12 -448 -3 -442 3 2 11 -13 17 -32 9 -32 9 -34
-6 -22 -9 7 -13 8 -10 2 5 -7 -13 -9 -54 -6 -44 3 -59 1 -54 -7 4 -6 37 -11
82 -11 72 0 74 1 74 24 0 13 -5 26 -11 28 -7 2 -13 59 -17 163 -3 101 -8 151
-13 135 -5 -14 -6 10 -3 55 3 44 10 84 15 90 12 12 12 45 0 45 -5 0 -12 -10
-17 -22z"/>
<path d="M2982 630 c0 -14 2 -19 5 -12 2 6 2 18 0 25 -3 6 -5 1 -5 -13z"/>
<path d="M1592 588 c-2 -29 -1 -50 1 -48 9 9 18 100 10 100 -4 0 -9 -24 -11
-52z"/>
<path d="M2151 618 c-12 -33 -23 -395 -13 -402 10 -6 21 137 23 294 1 52 6
103 11 113 6 11 5 17 -2 17 -6 0 -14 -10 -19 -22z"/>
<path d="M2634 625 c4 -11 10 -43 13 -71 5 -46 3 -52 -22 -72 -30 -24 -30 -41
6 -119 10 -23 19 -48 19 -55 0 -24 41 -122 56 -132 8 -6 15 -23 16 -38 2 -21
5 -24 15 -16 19 15 16 34 -8 49 -13 9 -36 58 -64 139 -24 68 -42 126 -40 128
6 6 45 -42 45 -55 0 -15 16 -17 25 -3 3 5 -10 24 -29 41 l-36 31 20 28 c20 27
27 80 13 94 -4 3 -8 16 -10 29 -2 12 -9 26 -15 32 -8 7 -9 4 -4 -10z"/>
<path d="M888 619 c-9 -5 -22 -24 -28 -43 -9 -27 -15 -33 -32 -29 -17 5 -19
11 -15 39 3 19 2 34 -4 34 -14 0 -11 -66 7 -150 8 -41 21 -104 28 -140 9 -51
13 -60 18 -41 4 13 3 32 -3 42 -12 23 -12 69 1 69 6 0 10 9 10 20 0 11 -4 20
-10 20 -5 0 -10 4 -10 10 0 5 7 7 15 4 18 -7 30 34 22 82 -3 18 -2 34 4 34 5
0 9 -18 9 -39 0 -22 5 -43 10 -46 11 -7 13 7 12 75 -1 34 1 40 8 25 8 -19 9
-19 9 2 1 27 -28 45 -51 32z m-41 -141 c-3 -8 -6 -5 -6 6 -1 11 2 17 5 13 3
-3 4 -12 1 -19z"/>
<path d="M2194 470 c0 -91 2 -128 3 -82 2 45 2 119 0 165 -1 45 -3 8 -3 -83z"/>
<path d="M2504 616 c-3 -7 -4 -38 -2 -67 2 -43 7 -55 22 -57 26 -5 36 15 34
73 l-1 50 -6 -55 c-8 -72 -25 -62 -22 13 2 36 -2 57 -9 57 -6 0 -13 -6 -16
-14z"/>
<path d="M3129 615 c-3 -11 -1 -38 3 -59 5 -22 12 -70 16 -108 4 -38 11 -68
16 -68 5 0 10 27 11 61 0 35 -2 53 -6 43 -5 -12 -8 -1 -8 32 -1 27 -5 54 -10
60 -5 5 -11 20 -13 34 -4 22 -5 23 -9 5z"/>
<path d="M4538 623 c-24 -4 -26 -7 -23 -44 3 -30 -1 -42 -16 -53 -12 -8 -16
-16 -9 -19 6 -3 5 -4 -2 -3 -7 1 -14 12 -16 24 -4 27 -42 31 -42 5 0 -13 -3
-14 -12 -5 -9 9 -17 2 -35 -29 -13 -23 -21 -45 -18 -49 3 -5 1 -11 -4 -14 -5
-3 -11 3 -14 14 -3 11 -14 20 -25 20 -20 0 -52 -29 -52 -48 0 -7 -7 -12 -16
-12 -12 0 -15 -6 -10 -22 4 -13 14 -45 22 -73 8 -27 21 -72 28 -100 8 -27 23
-78 34 -113 19 -57 19 -63 4 -71 -14 -8 -15 -12 -4 -23 11 -11 15 -10 22 2 7
10 10 11 10 3 0 -10 31 -13 120 -13 l120 0 0 296 c0 310 1 303 -43 266 -21
-19 -35 -7 -21 16 6 9 13 15 16 12 6 -6 38 20 38 31 0 9 -4 9 -52 2z m-118
-193 c0 -5 -2 -10 -4 -10 -3 0 -8 5 -11 10 -3 6 -1 10 4 10 6 0 11 -4 11 -10z
m-30 -40 c0 -5 -4 -10 -10 -10 -5 0 -10 5 -10 10 0 6 5 10 10 10 6 0 10 -4 10
-10z m-92 -17 c-2 -9 -8 -18 -15 -20 -7 -3 -9 3 -6 16 6 25 26 28 21 4z m67
-13 c3 -5 -1 -10 -9 -10 -9 0 -16 5 -16 10 0 6 4 10 9 10 6 0 13 -4 16 -10z
m177 -102 c-7 -7 -12 -8 -12 -2 0 14 12 26 19 19 2 -3 -1 -11 -7 -17z"/>
<path d="M2783 570 c0 -30 2 -43 4 -27 2 15 2 39 0 55 -2 15 -4 2 -4 -28z"/>
<path d="M2285 401 c0 -115 -3 -207 -7 -204 -4 2 -5 -3 -2 -11 3 -9 9 -14 14
-11 8 5 20 369 13 408 -13 66 -18 13 -18 -182z"/>
<path d="M4185 592 c3 -8 8 -25 11 -39 4 -13 18 -29 31 -34 32 -12 46 -11 38
1 -4 6 -1 17 5 25 19 23 -17 60 -58 60 -23 0 -31 -4 -27 -13z"/>
<path d="M3018 383 c5 -192 4 -213 -11 -219 -25 -9 -21 -39 7 -57 13 -9 59
-21 102 -26 44 -6 90 -13 104 -17 57 -14 65 -11 63 21 -7 117 -8 455 -1 455 4
0 8 11 8 25 0 16 -6 25 -16 25 -8 0 -12 -5 -9 -10 4 -6 2 -16 -3 -23 -5 -7
-13 -93 -16 -193 -4 -99 -11 -198 -16 -220 -8 -35 -7 -37 6 -20 18 25 18 9 -1
-24 -8 -14 -14 -19 -15 -11 0 7 -6 11 -14 8 -16 -6 -29 42 -19 70 5 15 3 14
-10 -2 -18 -22 -18 -22 -23 15 -1 14 -8 48 -14 75 -6 28 -9 62 -6 78 3 15 1
27 -5 27 -6 0 -7 -4 -4 -10 3 -5 -1 -10 -9 -10 -17 0 -22 -16 -7 -22 4 -1 11
-54 14 -115 5 -102 4 -113 -11 -113 -15 0 -15 2 -2 10 13 8 13 10 -1 10 -10 0
-16 7 -15 18 1 13 -7 17 -29 17 l-30 1 -3 174 c-2 96 -7 198 -12 225 -5 30 -6
-35 -2 -162z m31 -263 c6 0 11 -4 11 -10 0 -5 -4 -10 -9 -10 -14 0 -41 29 -41
43 0 7 7 4 14 -5 7 -10 18 -18 25 -18z"/>
<path d="M3394 581 c4 -5 13 -8 21 -4 11 4 15 -2 15 -20 0 -14 4 -29 10 -32 6
-4 9 7 7 27 -2 28 -7 33 -31 36 -17 2 -26 0 -22 -7z"/>
<path d="M4476 567 c3 -10 9 -15 12 -12 3 3 0 11 -7 18 -10 9 -11 8 -5 -6z"/>
<path d="M3474 564 c-7 -3 -10 -13 -7 -24 3 -12 -2 -20 -15 -24 -15 -5 -21
-20 -27 -69 -4 -34 -7 -78 -7 -97 l1 -35 -10 30 c-5 17 -7 44 -5 60 2 17 1 22
-1 13 -7 -29 -23 -20 -23 13 0 19 -4 28 -11 24 -12 -8 -2 58 13 88 6 12 5 17
-7 17 -13 0 -21 -22 -12 -33 1 -2 -4 -11 -11 -19 -8 -11 -14 -73 -17 -204 -3
-116 -1 -179 4 -164 9 24 9 24 10 -8 1 -20 -3 -31 -9 -27 -14 9 -12 -7 5 -41
22 -46 115 -80 115 -43 0 5 8 22 17 36 27 41 42 91 49 163 7 71 -3 90 -49 97
-35 6 -38 16 -30 104 4 46 9 75 11 64 2 -11 16 -33 32 -50 15 -16 30 -37 33
-45 3 -8 6 27 6 78 1 60 -3 91 -9 87 -5 -3 -10 -1 -10 4 0 11 -16 13 -36 5z
m34 -26 c7 -7 12 -35 11 -62 0 -38 -3 -46 -9 -31 -5 12 -9 14 -9 6 -1 -23 -12
-6 -21 33 -4 20 -4 36 1 36 4 0 6 7 3 15 -7 18 7 20 24 3z m-137 -172 c5 3 12
-3 15 -13 3 -10 10 -27 14 -38 12 -29 9 -57 -7 -80 l-15 -20 6 20 c16 59 17
75 8 75 -6 0 -13 -8 -15 -17 -3 -10 -3 2 0 27 3 30 1 40 -5 32 -7 -11 -10 -10
-16 3 -3 9 -5 22 -5 28 1 7 3 4 6 -6 2 -9 9 -15 14 -11z m-14 -78 c-3 -8 -6
-5 -6 6 -1 11 2 17 5 13 3 -3 4 -12 1 -19z m139 -18 c0 -26 -22 -26 -29 -1 -6
23 0 31 17 25 6 -2 12 -13 12 -24z m-56 -138 c-9 -14 -10 -11 -6 17 3 18 7 54
8 80 2 38 2 35 5 -17 2 -35 -1 -70 -7 -80z m-80 113 c0 -8 -2 -15 -4 -15 -2 0
-6 7 -10 15 -3 8 -1 15 4 15 6 0 10 -7 10 -15z m142 -62 c-9 -26 -32 -13 -32
17 0 29 1 29 18 13 10 -10 17 -24 14 -30z m-95 -5 c-3 -7 -5 -2 -5 12 0 14 2
19 5 13 2 -7 2 -19 0 -25z"/>
<path d="M4300 530 c0 -16 2 -30 4 -30 2 0 11 -3 20 -6 12 -5 16 0 16 18 0 24
-16 48 -32 48 -4 0 -8 -13 -8 -30z"/>
<path d="M1672 530 c-6 -11 -8 -21 -3 -25 5 -3 13 4 16 16 9 28 2 33 -13 9z"/>
<path d="M960 533 c-1 -15 -10 -118 -13 -138 -2 -19 22 -29 33 -14 9 12 -1
159 -11 159 -5 0 -9 -3 -9 -7z"/>
<path d="M1606 494 c-11 -8 -16 -14 -10 -14 13 0 39 18 34 24 -3 2 -14 -2 -24
-10z"/>
<path d="M1753 455 c0 -33 2 -45 4 -27 2 18 2 45 0 60 -2 15 -4 0 -4 -33z"/>
<path d="M1555 482 c-6 -4 -12 -34 -13 -67 -2 -33 -7 -88 -11 -122 -4 -35 -4
-63 0 -63 5 0 11 -16 15 -35 3 -19 10 -35 15 -35 12 0 11 37 -1 45 -5 3 -10
42 -10 87 l0 80 29 -4 c17 -2 28 -1 25 4 -3 4 -14 8 -26 8 -19 0 -20 4 -14 55
3 30 5 55 3 55 -1 0 -7 -4 -12 -8z"/>
<path d="M1111 362 c-19 -64 -40 -127 -48 -139 -17 -29 -17 -53 1 -53 8 0 16
-5 18 -11 2 -7 22 -9 61 -4 51 7 57 10 57 31 0 12 5 26 10 29 6 3 10 17 10 30
0 13 -4 27 -10 30 -5 3 -10 15 -10 26 0 32 -17 13 -31 -36 -8 -28 -16 -40 -21
-32 -4 7 -6 -4 -4 -23 2 -19 1 -26 -1 -16 -4 16 -7 17 -14 5 -7 -11 -9 -11 -9
-1 0 7 -4 11 -9 7 -6 -3 -6 7 0 27 13 48 10 59 -6 18 -7 -19 -14 -29 -14 -22
-2 22 32 137 43 147 10 9 23 105 14 105 -2 0 -18 -53 -37 -118z m86 -134 c-3
-7 -5 -2 -5 12 0 14 2 19 5 13 2 -7 2 -19 0 -25z m-17 -32 c0 -8 -4 -18 -10
-21 -5 -3 -10 3 -10 14 0 12 5 21 10 21 6 0 10 -6 10 -14z m-57 -23 c-7 -2
-19 -2 -25 0 -7 3 -2 5 12 5 14 0 19 -2 13 -5z"/>
<path d="M2788 327 c3 -103 1 -125 -12 -136 -9 -8 -15 -25 -15 -40 1 -21 2
-22 6 -6 3 11 11 24 19 28 11 6 14 38 14 142 0 74 -3 135 -7 135 -5 0 -7 -55
-5 -123z"/>
<path d="M4230 439 c0 -5 5 -7 10 -4 6 3 10 8 10 11 0 2 -4 4 -10 4 -5 0 -10
-5 -10 -11z"/>
<path d="M895 409 c-4 -11 -7 -50 -6 -87 0 -37 -3 -62 -7 -55 -4 6 -8 -12 -9
-40 -2 -33 -8 -54 -18 -59 -44 -25 22 -36 129 -22 44 6 46 8 46 39 0 70 -12
126 -27 121 -7 -3 -16 0 -19 8 -3 8 -15 11 -30 8 -17 -3 -24 -11 -24 -28 0
-12 -4 -26 -10 -29 -6 -4 -10 20 -10 64 0 44 4 71 12 73 12 4 3 28 -12 28 -5
0 -12 -9 -15 -21z m75 -134 c0 -14 -2 -25 -4 -25 -2 0 -6 11 -8 25 -3 14 -1
25 3 25 5 0 9 -11 9 -25z m-29 -48 c-10 -9 -11 -8 -5 6 3 10 9 15 12 12 3 -3
0 -11 -7 -18z"/>
<path d="M2502 319 c-1 -109 3 -139 19 -139 5 0 9 30 10 68 l1 67 17 -55 c17
-52 17 -56 0 -70 -9 -8 -19 -24 -21 -35 -3 -15 -11 -20 -35 -20 -17 0 -35 -3
-39 -7 -4 -5 16 -8 44 -8 49 0 51 1 57 32 4 18 12 36 18 40 9 5 -39 171 -63
217 -4 8 -8 -33 -8 -90z"/>
<path d="M3229 393 c-6 -49 -12 -200 -8 -195 7 7 19 202 13 202 -2 0 -4 -3 -5
-7z"/>
<path d="M1631 361 c-16 -12 -20 -20 -12 -25 6 -4 14 0 17 9 4 9 16 21 28 25
13 5 15 9 6 9 -8 0 -26 -8 -39 -18z"/>
<path d="M1741 323 c-2 -71 -8 -93 -27 -93 -8 0 -14 -10 -14 -25 0 -14 5 -25
10 -25 6 0 10 7 10 16 0 9 7 22 15 28 16 12 31 156 16 156 -4 0 -9 -26 -10
-57z"/>
<path d="M3168 353 c7 -3 16 -2 19 1 4 3 -2 6 -13 5 -11 0 -14 -3 -6 -6z"/>
<path d="M1914 303 c-3 -10 -10 -26 -15 -36 -11 -21 -6 -33 9 -23 5 3 12 22
14 41 4 38 1 46 -8 18z"/>
<path d="M3156 288 c-9 -35 -5 -57 5 -28 8 23 8 22 5 -8 -1 -18 1 -35 6 -38 4
-3 8 18 8 45 0 53 -13 68 -24 29z"/>
<path d="M1970 231 l0 -71 -60 0 c-33 0 -60 4 -60 8 0 4 -27 8 -59 7 -33 0
-56 -4 -52 -8 9 -9 239 -25 249 -17 13 10 8 143 -5 147 -10 4 -13 -14 -13 -66z"/>
<path d="M2182 255 c0 -37 2 -44 8 -28 5 12 5 34 1 50 -7 24 -8 20 -9 -22z"/>
<path d="M1240 219 c0 -5 5 -7 10 -4 6 3 10 8 10 11 0 2 -4 4 -10 4 -5 0 -10
-5 -10 -11z"/>
<path d="M480 210 c0 -5 5 -10 11 -10 5 0 7 5 4 10 -3 6 -8 10 -11 10 -2 0 -4
-4 -4 -10z"/>
<path d="M3045 209 c-10 -15 3 -25 16 -12 7 7 7 13 1 17 -6 3 -14 1 -17 -5z"/>
<path d="M1758 188 c5 -5 16 -8 23 -6 8 3 3 7 -10 11 -17 4 -21 3 -13 -5z"/>
<path d="M0 90 l0 -90 106 0 106 0 -58 56 c-38 38 -53 58 -45 63 9 6 5 12 -11
23 -19 12 -83 38 -94 38 -2 0 -4 -40 -4 -90z m80 -25 c0 -8 11 -17 25 -21 36
-9 23 -17 -14 -9 -22 5 -31 12 -31 26 0 10 5 19 10 19 6 0 10 -7 10 -15z"/>
<path d="M1417 168 c2 -5 31 -8 64 -8 32 0 59 3 59 8 0 4 -29 7 -64 7 -35 0
-62 -3 -59 -7z"/>
<path d="M2226 172 c-4 -7 -2 -12 3 -12 6 0 11 -4 11 -10 0 -5 -6 -7 -14 -4
-8 3 -23 1 -33 -5 -15 -9 -12 -10 18 -11 19 0 44 7 55 15 19 14 19 14 -3 15
-12 0 -23 5 -25 12 -3 9 -6 9 -12 0z"/>
<path d="M2165 160 c-3 -6 1 -7 9 -4 18 7 21 14 7 14 -6 0 -13 -4 -16 -10z"/>
<path d="M2858 153 c7 -3 16 -2 19 1 4 3 -2 6 -13 5 -11 0 -14 -3 -6 -6z"/>
<path d="M3681 134 c0 -11 3 -14 6 -6 3 7 2 16 -1 19 -3 4 -6 -2 -5 -13z"/>
<path d="M517 133 c-4 -3 -7 -13 -7 -22 1 -13 3 -13 11 2 11 19 8 33 -4 20z"/>
<path d="M2138 133 c7 -3 16 -2 19 1 4 3 -2 6 -13 5 -11 0 -14 -3 -6 -6z"/>
<path d="M2395 130 c-3 -5 -1 -10 4 -10 6 0 11 5 11 10 0 6 -2 10 -4 10 -3 0
-8 -4 -11 -10z"/>
<path d="M2583 128 c-2 -5 22 -8 53 -8 32 0 54 3 51 7 -10 9 -98 10 -104 1z"/>
<path d="M140 120 c0 -17 23 -37 38 -32 14 4 17 32 3 32 -5 0 -16 3 -25 6 -9
3 -16 1 -16 -6z"/>
<path d="M213 99 c-30 -11 -29 -17 13 -61 34 -37 38 -38 102 -38 61 1 65 2 48
15 -11 8 -28 13 -38 9 -12 -4 -18 0 -18 11 0 10 -16 23 -40 32 -21 9 -40 21
-42 28 -2 9 -10 10 -25 4z"/>
<path d="M2345 100 c-4 -7 3 -8 20 -4 33 8 71 -21 54 -43 -16 -19 11 -18 37 2
25 19 50 19 58 0 8 -22 25 -18 19 4 -6 25 -27 33 -58 21 -20 -8 -27 -6 -37 10
-14 22 -81 29 -93 10z"/>
<path d="M3905 87 c-4 -10 -5 -21 -1 -24 10 -10 18 4 13 24 -4 17 -4 17 -12 0z"/>
<path d="M3677 84 c-4 -4 -7 -25 -7 -46 0 -30 4 -38 18 -38 14 0 17 8 17 35
-2 36 -16 61 -28 49z"/>
<path d="M4256 81 c-3 -5 -15 -7 -26 -4 -25 7 -70 -4 -70 -17 0 -5 16 -12 35
-16 25 -4 35 -11 35 -25 0 -15 7 -19 40 -19 39 0 40 1 34 28 -13 54 -34 77
-48 53z"/>
<path d="M548 65 c-8 -14 2 -65 13 -65 10 0 10 14 0 50 -4 14 -10 20 -13 15z"/>
<path d="M4321 54 c0 -11 3 -14 6 -6 3 7 2 16 -1 19 -3 4 -6 -2 -5 -13z"/>
<path d="M4146 42 c-3 -3 -6 -14 -6 -24 0 -13 7 -18 25 -18 18 0 25 5 25 19 0
18 -33 35 -44 23z"/>
<path d="M642 20 c0 -14 2 -19 5 -12 2 6 2 18 0 25 -3 6 -5 1 -5 -13z"/>
<path d="M2072 20 c0 -14 2 -19 5 -12 2 6 2 18 0 25 -3 6 -5 1 -5 -13z"/>
<path d="M2150 33 c0 -4 5 -15 10 -23 8 -13 10 -13 10 2 0 9 -4 20 -10 23 -5
3 -10 3 -10 -2z"/>
<path d="M2245 19 c-4 -6 -5 -12 -2 -15 2 -3 7 2 10 11 7 17 1 20 -8 4z"/>
<path d="M2471 14 c0 -11 3 -14 6 -6 3 7 2 16 -1 19 -3 4 -6 -2 -5 -13z"/>
<path d="M3876 15 c-4 -11 2 -15 21 -15 21 0 24 2 13 15 -16 19 -26 19 -34 0z"/>
</g>
</svg>
